<?xml version="1.0" encoding="UTF-8" standalone="no"?>
<!-- Created with Inkscape (http://www.inkscape.org/) -->

<svg
   width="643mm"
   height="643mm"
   viewBox="0 0 642.99999 642.99999"
   version="1.1"
   id="svg5"
   inkscape:version="1.1 (c68e22c387, 2021-05-23)"
   sodipodi:docname="Sello_Corte_Suprema_de_Justicia_de_El_Salvador_(2021).svg"
   xmlns:inkscape="http://www.inkscape.org/namespaces/inkscape"
   xmlns:sodipodi="http://sodipodi.sourceforge.net/DTD/sodipodi-0.dtd"
   xmlns="http://www.w3.org/2000/svg"
   xmlns:svg="http://www.w3.org/2000/svg">
  <sodipodi:namedview
     id="namedview7"
     pagecolor="#505050"
     bordercolor="#ffffff"
     borderopacity="1"
     inkscape:pageshadow="0"
     inkscape:pageopacity="0"
     inkscape:pagecheckerboard="1"
     inkscape:document-units="mm"
     showgrid="false"
     inkscape:snap-page="false"
     fit-margin-top="0"
     fit-margin-left="0"
     fit-margin-right="0"
     fit-margin-bottom="0"
     inkscape:zoom="0.1767767"
     inkscape:cx="2013.8401"
     inkscape:cy="1221.8805"
     inkscape:window-width="1366"
     inkscape:window-height="705"
     inkscape:window-x="-8"
     inkscape:window-y="-8"
     inkscape:window-maximized="1"
     inkscape:current-layer="layer1" />
  <defs
     id="defs2" />
  <g
     inkscape:label="Layer 1"
     inkscape:groupmode="layer"
     id="layer1"
     transform="translate(12.268188,-48.593564)">
    <g
       id="g10882"
       transform="matrix(1.0165682,0,0,1.0174068,0.20326234,-0.84586114)">
      <ellipse
         style="opacity:1;fill:#ffffff;stroke-width:5.91262"
         id="ellipse10020"
         ry="315.99945"
         rx="316.26013"
         cy="364.59302"
         cx="303.99194" />
      <ellipse
         style="opacity:1;fill:#c4893f;fill-opacity:1;stroke-width:5.74423"
         id="ellipse10022"
         ry="307.1582"
         rx="307.09741"
         cy="364.66333"
         cx="304.15738" />
      <ellipse
         style="fill:#252138;fill-opacity:1;stroke-width:5.54444"
         id="ellipse10024"
         ry="296.41666"
         rx="296.47583"
         cy="364.5083"
         cx="304.10666" />
      <path
         d="m 454.53791,575.79255 c 2.27764,-1.59533 2.5117,-5.1478 0.48653,-7.38554 -2.61153,-2.88573 -7.2159,-1.52191 -8.40711,2.49022 -0.41465,1.39656 0.0146,2.49859 1.58913,4.07232 2.50541,2.50543 3.70653,2.66157 6.33145,0.823 z m -307.5919,-9.81082 c 0.94306,-0.94307 1.71466,-2.40041 1.71466,-3.23855 0,-2.52213 -2.51171,-5.33479 -4.76394,-5.33479 -2.53269,0 -5.52405,2.78557 -5.52405,5.14401 0,2.20811 2.93588,5.14401 5.14399,5.14401 0.94307,0 2.48627,-0.7716 3.42934,-1.71468 z m 327.50134,-6.00132 c 0.94305,-0.94308 1.71465,-2.48628 1.71465,-3.42935 0,-0.94306 -0.7716,-2.48626 -1.71465,-3.42933 -0.94308,-0.94306 -2.48628,-1.71466 -3.42935,-1.71466 -2.12517,0 -5.14399,2.90688 -5.14399,4.95324 0,4.64654 5.3063,6.88712 8.57334,3.6201 z M 128.55231,547.58803 c 2.45217,-2.45216 2.60075,-3.66407 0.76975,-6.2782 -1.59533,-2.27764 -5.1478,-2.51167 -7.38554,-0.48656 -3.28018,2.96854 -0.94864,8.32723 3.82946,8.80144 0.37508,0.0372 1.62893,-0.87928 2.78633,-2.03668 z m 365.39936,-6.70704 c 1.5022,-1.16233 1.33602,-5.37643 -0.27556,-6.98802 -3.22152,-3.2215 -8.37151,-0.55451 -7.9154,4.09908 0.40456,4.12775 4.65332,5.62629 8.19096,2.88894 z M 112.1754,528.92564 c 1.7087,-2.43952 1.68662,-4.00058 -0.0843,-5.95741 -2.8675,-3.16854 -8.86911,-1.18795 -8.86911,2.9269 0,4.55682 6.37333,6.71404 8.95339,3.03051 z m 398.42677,-6.37213 c 0.86232,-0.78037 1.56784,-2.32357 1.56784,-3.42933 0,-2.46047 -2.81732,-5.43979 -5.14401,-5.43979 -0.94305,0 -2.48625,0.7716 -3.42933,1.71468 -0.94308,0.94307 -1.71468,2.48627 -1.71468,3.42933 0,2.2684 2.95767,5.144 5.29082,5.144 1.02384,0 2.56704,-0.63849 3.42936,-1.41889 z M 96.510168,509.69353 c 1.8337,-1.65949 2.028814,-4.48165 0.45833,-6.62942 -1.709518,-2.33791 -6.644968,-1.55649 -8.243414,1.30516 -1.129987,2.02303 -1.108339,2.49301 0.207348,4.50102 1.716315,2.61943 5.177474,2.99543 7.577728,0.82324 z m 428.329072,-6.77441 c 3.71972,-2.60538 1.72746,-8.95338 -2.80993,-8.95338 -4.53735,0 -6.52961,6.348 -2.80987,8.95338 1.04797,0.73403 2.31245,1.33462 2.80987,1.33462 0.49749,0 1.76194,-0.60059 2.80993,-1.33462 z M 84.075578,487.43694 c 1.315701,-2.00801 1.337349,-2.47799 0.207348,-4.50099 -2.359096,-4.22344 -9.352924,-2.93974 -9.352924,1.71672 0,3.3092 1.614488,5.02641 4.725735,5.02641 2.23607,0 3.306557,-0.54307 4.419834,-2.24214 z M 82.309559,249.18279 c 1.573724,-1.5737 2.003769,-2.67576 1.589129,-4.07232 -0.707891,-2.38428 -2.767183,-4.05806 -4.992701,-4.05806 -4.466278,0 -6.561803,6.4081 -2.927876,8.95338 2.624913,1.83857 3.826018,1.68243 6.331448,-0.823 z m 448.721781,0.44296 c 0.94308,-0.94308 1.71468,-2.40044 1.71468,-3.23858 0,-2.5221 -2.51172,-5.33476 -4.76397,-5.33476 -2.53267,0 -5.52405,2.78556 -5.52405,5.14401 0,2.20811 2.9359,5.14398 5.14401,5.14398 0.94305,0 2.48625,-0.7716 3.42933,-1.71465 z M 95.721792,227.22779 c 1.428823,-1.9212 1.516735,-2.54861 0.600664,-4.28664 -1.304434,-2.47491 -2.441617,-3.29168 -4.60694,-3.30894 -4.433195,-0.0352 -6.483656,6.40644 -2.853838,8.9657 2.571916,1.81335 4.827571,1.36285 6.860114,-1.37012 z m 422.449518,0.96461 c 0.9431,-0.94305 1.7147,-2.48625 1.7147,-3.42933 0,-2.20811 -2.9359,-5.14401 -5.14401,-5.14401 -2.20811,0 -5.14401,2.9359 -5.14401,5.14401 0,2.20811 2.9359,5.14401 5.14401,5.14401 0.94308,0 2.48628,-0.7716 3.42931,-1.71468 z m -407.7232,-20.20855 c 2.96618,-2.9662 0.50928,-8.08345 -3.88102,-8.08345 -2.44074,0 -5.05974,2.61549 -5.05974,5.05294 0,3.71078 6.16935,5.8019 8.94076,3.03051 z m 393.15075,0.0586 c 0.58819,-0.70876 1.06945,-2.25077 1.06945,-3.42669 0,-2.95665 -1.69504,-4.71533 -4.54471,-4.71533 -4.2725,0 -6.33546,3.80606 -4.21277,7.77235 1.08833,2.03355 6.10687,2.27487 7.68803,0.36967 z M 126.73744,189.97983 c 2.80464,-2.80464 0.87619,-8.94076 -2.80991,-8.94076 -4.76049,0 -7.13584,6.31436 -3.36809,8.9534 2.42597,1.69922 4.47034,1.69502 6.178,-0.0121 z m 359.52181,0.0122 c 1.08495,-0.75993 1.90542,-2.23662 1.90542,-3.42933 0,-2.53269 -2.78556,-5.52406 -5.14401,-5.52406 -2.20813,0 -5.14398,2.93589 -5.14398,5.144 0,2.12517 2.90686,5.14401 4.95324,5.14401 0.83814,0 2.38134,-0.60059 3.42933,-1.33462 z M 145.59876,172.83317 c 1.74486,-1.74485 1.72256,-5.01364 -0.0463,-6.78248 -2.1124,-2.11241 -6.42454,-1.3612 -7.95938,1.3866 -1.13,2.023 -1.10835,2.49299 0.20735,4.50099 1.70352,2.5999 5.64142,3.0518 7.79832,0.89489 z m 322.67579,0.31844 c 0.56583,-0.56584 1.02879,-2.22478 1.02879,-3.68654 0,-3.36541 -1.34992,-4.71533 -4.71534,-4.71533 -3.36541,0 -4.71533,1.34992 -4.71533,4.71533 0,3.36542 1.34992,4.71534 4.71533,4.71534 1.46177,0 3.12067,-0.46296 3.68655,-1.0288 z M 166.47391,156.55646 c 3.6106,-2.52896 1.75267,-8.95338 -2.5893,-8.95338 -4.55681,0 -6.71404,6.37333 -3.0305,8.95338 1.04798,0.73404 2.31244,1.33461 2.8099,1.33461 0.49746,0 1.76192,-0.60057 2.8099,-1.33461 z m 280.348,0 c 3.53378,-2.47516 1.55117,-8.97153 -2.72845,-8.94026 -5.34956,0.0391 -7.06652,6.65267 -2.42861,9.35475 2.05941,1.19985 2.95505,1.12786 5.15706,-0.41449 z"
         style="fill:#f3db9b;fill-opacity:1;stroke-width:0.226836"
         id="path10026" />
      <path
         d="m 269.07905,367.00027 c 2.04765,-0.5156 4.91547,-1.96234 6.3729,-3.21501 3.05965,-2.62971 5.96338,-8.70753 4.16008,-8.70753 -0.60919,0 -3.35115,-5.4569 -6.13872,-12.21699 -2.77076,-6.71936 -5.55981,-13.07149 -6.19787,-14.11584 -1.51083,-2.47286 -1.53865,-2.41118 1.18951,-2.63697 1.29231,-0.10693 6.25052,-1.5414 11.01826,-3.18767 9.26633,-3.19958 13.4466,-3.59818 18.56776,-1.7706 l 3.21501,1.14737 v -5.90033 c 0,-4.43323 -0.29294,-5.90029 -1.1782,-5.90029 -2.41792,0 -8.04129,2.53719 -15.08465,6.80602 -11.31834,6.85978 -19.87614,8.52879 -24.10551,4.70129 -1.52647,-1.38144 -1.52151,-1.46988 0.15879,-2.8305 1.12702,-0.9126 1.53385,-1.92732 1.16163,-2.89732 -0.80909,-2.1085 -2.68653,-1.85201 -4.28343,0.58517 -1.2164,1.85649 -1.22536,2.34139 -0.0841,4.54843 0.70263,1.35872 2.26243,2.91918 3.46623,3.46766 l 2.18873,0.99727 -1.76836,4.09932 c -0.97261,2.25463 -3.70311,8.72892 -6.0678,14.38732 -2.36469,5.65841 -4.64682,10.4166 -5.0714,10.57378 -2.15143,0.79644 0.62808,6.70476 4.39563,9.34365 2.13055,1.49229 7.407,3.56001 9.24175,3.62161 0.61638,0.0195 2.79605,-0.38424 4.84371,-0.89984 z M 258.15376,342.0034 c 3.08095,-7.19088 5.74689,-13.23507 5.92431,-13.43155 0.17741,-0.19637 0.32258,5.68697 0.32258,13.07433 v 13.43155 h -5.92431 -5.92432 z m 7.10423,-0.35722 c 0,-7.38736 0.17038,-13.26117 0.37861,-13.05295 0.31577,0.31579 5.71334,12.65901 10.36298,23.69818 l 1.17358,2.78632 h -5.95759 -5.95758 z m 85.26771,25.35409 c 2.04767,-0.5156 4.91547,-1.96234 6.37293,-3.21501 3.04219,-2.61471 5.95782,-8.6998 4.17787,-8.71949 -0.96855,-0.01 -12.68985,-26.58705 -12.66664,-28.71973 0.005,-0.47761 0.87579,-1.24921 1.93467,-1.71468 3.78358,-1.66322 4.95357,-8.14182 1.69611,-9.39181 -0.74456,-0.28573 -1.9604,0.0982 -2.70187,0.85333 -1.22749,1.24996 -1.18243,1.50881 0.50345,2.89256 2.15229,1.76656 1.64753,3.04061 -1.7105,4.31734 -5.31896,2.02225 -12.1294,-0.005 -24.05117,-7.16035 -4.29617,-2.57843 -9.27504,-4.94974 -11.06416,-5.26958 l -3.25292,-0.58151 0.20439,5.94565 0.20438,5.94562 3.04861,-1.09013 c 4.94638,-1.76875 9.21266,-1.34499 18.40138,1.82778 4.76776,1.64627 9.72597,3.08071 11.01828,3.18767 2.46051,0.20365 2.8249,0.65103 1.63433,2.00667 -0.39341,0.44796 -3.15646,6.69792 -6.14009,13.8888 -2.98365,7.1909 -5.74819,13.07433 -6.14339,13.07433 -1.24336,0 -0.7716,2.90308 0.87838,5.40555 1.9222,2.91526 4.54034,4.82258 8.6237,6.28238 3.837,1.37172 4.45299,1.38773 9.0324,0.23451 z M 339.60043,342.0034 c 3.08095,-7.19088 5.74687,-13.23507 5.92431,-13.43155 0.1774,-0.19637 0.32258,5.68697 0.32258,13.07433 v 13.43155 h -5.9243 -5.92434 z m 7.10423,-0.35722 c 0,-7.38736 0.17036,-13.26117 0.37861,-13.05295 0.31576,0.31579 5.71334,12.65901 10.36296,23.69818 l 1.17359,2.78632 h -5.95758 -5.95758 z"
         style="fill:#c4893f;fill-opacity:1;stroke-width:0.226836"
         id="path10028" />
      <path
         d="m 309.83885,387.22773 0.42864,-49.72532 4.58707,0.19441 c 2.52288,0.10693 5.70574,0.75255 7.07299,1.43462 l 2.48596,1.24015 v -3.79226 c 0,-2.08578 -0.28937,-3.79263 -0.64299,-3.79302 -2.61175,-0.002 -13.59521,-2.87837 -14.11462,-3.69527 -0.35647,-0.56065 -0.65405,-3.83894 -0.66127,-7.28512 -0.007,-3.44617 -0.42835,-8.94198 -0.93583,-12.21286 -0.79136,-5.10028 -0.73031,-6.1395 0.42864,-7.29846 1.71402,-1.71402 1.71536,-3.31447 0.005,-5.02568 -2.58963,-2.58949 -6.36889,-1.09958 -6.36889,2.51078 0,0.99022 0.4283,2.22867 0.95175,2.75214 0.69745,0.69743 0.69745,2.84139 0,8.02379 -0.52345,3.88962 -0.95175,9.85126 -0.95175,13.24809 v 6.17606 l -6.61773,1.06755 c -9.95952,1.60663 -10.52893,1.9326 -10.52893,6.02716 v 3.47256 l 2.46132,-1.27278 c 1.35374,-0.70006 5.01883,-1.53484 8.14467,-1.8551 l 5.68335,-0.58226 v 49.64469 49.64472 l 2.23072,3.28281 2.23071,3.28281 1.84161,-2.86947 c 1.81626,-2.82994 1.84751,-3.55388 2.27028,-52.59479 z m -4.60353,20.85119 c -0.2645,-3.92362 -0.67733,-21.5049 -0.91741,-39.06952 -0.43018,-31.47304 -0.41176,-31.93566 1.27223,-31.93566 1.68984,0 1.70248,0.42816 1.14542,38.79434 -0.30983,21.33687 -0.66591,38.91817 -0.79134,39.06952 -0.1254,0.15141 -0.44439,-2.93504 -0.7089,-6.85868 z"
         style="fill:#f3db9b;fill-opacity:1;stroke-width:0.226836"
         id="path10030" />
      <path
         d="m 310.9279,458.34295 c 11.83309,-4.84455 20.60716,-6.53646 37.06263,-7.14671 8.4876,-0.31477 15.95362,-0.89829 16.59114,-1.29673 0.63753,-0.39843 1.79493,-2.12407 2.572,-3.83476 1.27346,-2.8035 1.4377,-10.9131 1.66468,-82.19931 l 0.2518,-79.08902 h -3.07427 c -5.79962,0 -16.03553,-2.67888 -25.16138,-6.58504 -5.02332,-2.15016 -10.50336,-4.09634 -12.17789,-4.32485 -2.70382,-0.36901 -3.30678,-0.0717 -5.38737,2.65608 -1.28855,1.68935 -4.16229,4.14112 -6.3861,5.44834 -3.56628,2.0964 -4.90297,2.37592 -11.33061,2.36938 -8.50835,-0.01 -11.05095,-1.07511 -16.75423,-7.02741 -4.59483,-4.79542 -5.50567,-4.74635 -18.72206,1.00847 -9.28486,4.04292 -18.07908,6.4132 -23.89404,6.44013 l -3.215,0.0146 0.005,78.66035 c 0.003,51.72437 0.30957,79.75777 0.89484,81.8652 0.48954,1.76272 1.74124,3.68281 2.78155,4.26686 1.18141,0.66329 7.68481,1.27918 17.3235,1.64061 16.4043,0.61512 24.27607,2.1648 36.00799,7.08883 2.8292,1.18743 5.24812,2.1753 5.37537,2.19523 0.12725,0.0194 2.63495,-0.94782 5.57267,-2.15054 z m -15.40731,-4.31335 c -12.14619,-4.03747 -21.57528,-5.50254 -35.41405,-5.50254 -9.91511,0 -11.97211,-0.2248 -12.96203,-1.41731 -0.97451,-1.17381 -1.21921,-14.99689 -1.42441,-80.46631 l -0.24777,-79.04899 6.29254,-1.01509 c 3.46088,-0.55832 10.51678,-2.77001 15.67976,-4.91486 15.552,-6.46083 14.43486,-6.32447 18.63047,-2.27385 6.23002,6.01471 10.09226,7.50552 19.47743,7.51813 9.40915,0.0122 13.79401,-1.62605 19.70784,-7.36525 1.89318,-1.83725 3.83065,-3.34045 4.30549,-3.34045 0.47487,0 5.39337,1.90241 10.93004,4.22759 5.53663,2.32517 13.45381,4.92215 17.59371,5.77106 l 7.52708,1.54346 -0.23987,78.97356 c -0.19855,65.41423 -0.44176,79.21693 -1.41639,80.39095 -0.98993,1.19247 -3.04666,1.41736 -12.96203,1.41736 -13.83706,0 -23.12843,1.44444 -35.94638,5.58821 -5.07867,1.64182 -9.58308,2.94834 -10.00978,2.90333 -0.4267,-0.045 -4.7115,-1.39002 -9.52177,-2.989 z"
         style="fill:#c4893f;fill-opacity:1;stroke-width:0.226836"
         id="path10032" />
      <path
         d="m 308.34716,486.71394 c 3.49252,-4.37712 9.01647,-7.83799 16.61013,-10.40658 6.10176,-2.06395 8.45862,-2.34044 24.74803,-2.90311 13.18987,-0.4556 18.9808,-0.98989 21.65708,-1.99817 8.82939,-3.32638 14.67996,-9.68498 17.89587,-19.44969 1.44278,-4.38084 1.58497,-10.64487 2.00465,-88.30532 0.32969,-61.00547 0.71981,-84.05584 1.444,-85.31427 1.93306,-3.3591 4.39822,-4.92708 7.11857,-4.5278 2.1112,0.30986 2.60582,0.0778 2.60582,-1.22272 0,-0.88283 -0.94696,-2.55211 -2.10436,-3.70951 -1.82812,-1.82812 -2.88185,-2.10437 -8.02729,-2.10437 h -5.92292 l -0.4556,-5.67572 c -0.47246,-5.88588 -2.48669,-9.92287 -5.21913,-10.46034 -1.12087,-0.22042 -1.30141,0.21872 -0.90485,2.2016 0.77107,3.8554 -2.83956,7.58248 -8.48001,8.75344 -6.13688,1.27398 -11.07763,0.19491 -23.88621,-5.21689 -9.14116,-3.86225 -11.54421,-4.5252 -17.61061,-4.85831 -9.94868,-0.54629 -11.12133,-0.12127 -11.86864,4.30203 -1.64322,9.72619 -14.06874,13.70306 -21.03831,6.7335 -2.23219,-2.23222 -4.59254,-8.20141 -3.76956,-9.53301 0.63986,-1.03536 -3.0761,-1.65526 -9.88183,-1.64848 -6.76493,0.007 -9.60521,0.82939 -25.27449,7.32077 -6.20451,2.57039 -8.78677,3.18956 -13.30176,3.18956 -8.72231,0 -14.52959,-4.01961 -13.23859,-9.16337 0.82846,-3.30084 -1.79743,-2.93104 -3.92122,0.55222 -1.2138,1.9908 -1.69978,4.3163 -1.70207,8.14467 l -0.003,5.35833 h -6.33502 c -7.0383,0 -9.46325,1.23254 -10.42433,5.29845 -0.47579,2.01287 -0.32258,2.24009 1.23569,1.83264 3.07779,-0.80489 6.0024,0.50104 7.57774,3.38369 1.41052,2.58103 1.54903,8.55594 1.992,85.93522 0.40925,71.4887 0.66126,83.76302 1.79545,87.44801 2.57078,8.35248 6.15002,13.82398 11.25162,17.20007 6.50136,4.30239 9.40015,4.87116 28.48619,5.58932 24.11263,0.90728 31.13622,2.97028 39.43733,11.58389 2.35767,2.4464 4.47957,4.49015 4.71533,4.54168 0.23576,0.0515 1.4933,-1.24064 2.7945,-2.87143 z m -8.79584,-19.44198 c -10.72168,-5.53219 -16.98826,-6.87062 -35.29548,-7.53852 -15.53121,-0.56661 -17.18367,-0.78033 -20.92601,-2.70619 -4.63786,-2.38674 -6.73248,-5.68926 -8.06507,-12.71602 -1.35508,-7.14528 -1.15446,-159.36229 0.21355,-162.02418 1.94275,-3.78025 5.17153,-5.38093 12.32639,-6.11087 7.30551,-0.74531 11.67562,-2.03798 21.68277,-6.41374 14.05923,-6.14757 17.70234,-6.02414 24.34619,0.82492 8.23439,8.48869 14.86342,8.41972 23.95881,-0.24927 5.01552,-4.78035 5.16143,-4.8499 9.92826,-4.73281 3.51806,0.0865 6.826,0.98821 12.12525,3.30541 11.78759,5.15441 16.295,6.51836 23.95727,7.24942 6.86014,0.65454 7.38898,0.85408 10.09853,3.81071 l 2.85927,3.11998 -0.23914,81.64646 -0.23913,81.64648 -2.14335,4.28667 c -1.70651,3.41302 -2.99726,4.70989 -6.33339,6.36335 -3.81404,1.89034 -5.66051,2.13217 -20.57598,2.69494 -18.18381,0.68606 -24.22024,1.92839 -35.39461,7.28451 -3.38178,1.62097 -6.46818,2.88972 -6.85867,2.81946 -0.39049,-0.0702 -2.83188,-1.22255 -5.42531,-2.56071 z"
         style="fill:#f3db9b;fill-opacity:1;stroke-width:0.226836"
         id="path10034" />
      <path
         d="m 234.74504,227.37791 6.13484,-3.38651 6.29912,3.418 c 3.46453,1.87989 6.46771,3.2494 6.67375,3.04334 0.20608,-0.20608 -0.1062,-3.51572 -0.69393,-7.35484 l -1.06855,-6.98022 5.35855,-5.4066 5.3585,-5.40657 -7.56234,-1.0379 -7.56233,-1.03786 -3.28874,-7.02251 -3.28875,-7.0225 -3.5199,7.0201 -3.51991,7.0201 -7.61378,1.04048 -7.61379,1.04048 5.49909,5.65676 5.49907,5.65674 -1.09763,6.00135 c -1.29462,7.07835 -1.38175,8.14467 -0.66554,8.14467 0.2956,0 3.29813,-1.52393 6.67227,-3.38651 z m 129.8387,0.0734 6.3051,-3.22837 6.40044,3.35382 c 3.52022,1.84462 6.53376,3.22004 6.69674,3.05648 0.16306,-0.16355 -0.29914,-3.527 -1.02688,-7.47433 l -1.32319,-7.17698 5.25369,-4.67983 c 2.88952,-2.57396 5.25368,-4.99501 5.25368,-5.38018 0,-0.38516 -3.31489,-1.17086 -7.36643,-1.74598 l -7.36644,-1.04565 -3.30388,-6.83203 -3.30388,-6.83205 -3.43806,6.83793 -3.43803,6.83791 -7.32497,1.0398 c -4.02875,0.57186 -7.3277,1.28926 -7.331,1.59421 -0.002,0.30495 2.3626,2.68507 5.25762,5.28914 l 5.26362,4.73469 -1.26547,7.4823 c -0.69599,4.11529 -1.03647,7.46323 -0.7566,7.4399 0.27986,-0.0243 3.34614,-1.4952 6.81394,-3.27083 z m -63.87789,-11.2446 6.21776,-3.41249 6.38751,3.38993 c 3.51313,1.86448 6.61994,3.40012 6.90401,3.41252 0.28407,0.0121 -0.071,-3.27659 -0.78885,-7.30889 l -1.30535,-7.33141 5.36997,-5.41814 5.36997,-5.41812 -2.86644,-0.5092 c -1.57654,-0.28006 -4.91406,-0.7682 -7.41672,-1.08476 l -4.55022,-0.57556 -3.49554,-6.95224 -3.4955,-6.95225 -3.44761,6.95458 -3.44758,6.95458 -6.86699,0.97112 c -3.77686,0.53409 -7.09245,1.20659 -7.36797,1.4944 -0.27554,0.28782 1.93588,2.73924 4.91425,5.44762 l 5.41527,4.92431 -1.34292,7.07931 c -0.7386,3.89355 -1.34292,7.22954 -1.34292,7.41321 0,0.71243 1.14964,0.21775 7.15587,-3.07857 z"
         style="fill:#f3db9b;fill-opacity:1;stroke-width:0.226836"
         id="path10036" />
      <path
         d="m 356.86128,551.70237 c 1.71747,-0.4598 1.93556,-0.91989 1.49063,-3.14446 -1.32669,-6.63345 -7.71102,-13.39517 -14.99009,-15.8762 -3.33168,-1.1356 -10.91968,-1.33451 -11.5572,-0.30297 -0.80276,1.29889 1.03861,7.19158 3.48243,11.14435 4.16246,6.73266 13.60546,10.31269 21.57423,8.17928 z m -33.30452,-5.86797 v -4.71534 h -18.004 -18.004 v 4.71534 4.71533 h 18.004 18.004 z m -59.03464,2.00567 c 6.9709,-2.08852 13.53262,-10.20524 13.57715,-16.79466 l 0.0187,-2.78634 h -4.74287 c -8.2715,0 -15.01182,3.99271 -19.26783,11.41353 -3.11356,5.42881 -3.30834,8.04302 -0.63763,8.55742 3.79156,0.73029 7.78347,0.58943 11.05237,-0.38995 z m 117.02666,-5.12651 c 4.29498,-1.08146 5.27036,-2.42725 3.91516,-5.40164 -3.19092,-7.00333 -11.91581,-12.46774 -19.89783,-12.4621 -7.60428,0.005 -8.8391,0.58209 -8.30421,3.87841 0.61964,3.81839 4.49781,9.44596 8.00204,11.61169 5.43819,3.36097 9.82467,4.00034 16.28484,2.37364 z m -142.4405,-3.3983 c 4.55534,-1.14704 10.17364,-5.77115 12.46205,-10.25683 3.27328,-6.41614 2.14657,-7.62441 -7.1301,-7.64633 -6.15795,-0.0146 -9.72105,1.43508 -14.6146,5.94579 -4.00429,3.69102 -6.24181,7.73421 -5.43857,9.82742 0.26192,0.68258 2.13841,1.6127 4.16997,2.06691 5.09885,1.14005 6.24679,1.1469 10.55125,0.063 z m 84.44848,-5.05486 v -5.14399 h -18.004 -18.004 v 5.14399 5.144 h 18.004 18.004 z m 82.08968,-5.1209 c 2.004,-0.90966 3.64363,-2.23808 3.64363,-2.95201 0,-2.01323 -5.0283,-7.25916 -8.92081,-9.30688 -5.95121,-3.13078 -18.77938,-2.08971 -19.9851,1.62189 -0.57497,1.76994 5.31335,8.45003 9.16693,10.39957 4.767,2.41164 11.09961,2.50506 16.09535,0.23743 z M 222.6102,524.30797 c 2.00158,-1.40528 4.55915,-4.21918 5.68349,-6.25314 2.28577,-4.135 2.06438,-4.53898 -3.33026,-6.07724 -8.70055,-2.48094 -17.39781,0.50998 -22.83222,7.85177 l -2.1148,2.85704 1.88409,1.286 c 6.21371,4.24123 14.94523,4.38272 20.7097,0.33557 z m 100.94656,-1.62157 v -4.71534 h -18.004 -18.004 v 4.71534 4.71533 h 18.004 18.004 z m 13.00983,1.738 c 3.67821,-2.49942 6.10595,-7.98949 5.69767,-12.88482 -0.33963,-4.07225 -1.29085,-4.43778 -5.04875,-1.94013 -3.73131,2.48001 -6.80006,8.46792 -6.80006,13.26861 0,4.42565 1.40531,4.78122 6.15114,1.55634 z m -56.73383,-4.98567 c 0,-2.10957 -0.8221,-5.30365 -1.929,-7.49476 -1.89147,-3.74411 -6.91992,-8.02308 -8.72909,-7.42804 -0.50374,0.16575 -1.01556,2.19993 -1.13734,4.52053 -0.2764,5.26655 2.34952,10.20705 6.63806,12.48904 4.46646,2.37667 5.15737,2.0971 5.15737,-2.08677 z m 78.87593,-0.31878 c 5.06459,-2.99174 7.96513,-13.56577 4.87894,-17.78639 -1.05693,-1.44543 -1.27964,-1.39986 -3.88881,0.79559 -4.50464,3.79042 -6.69333,9.85257 -5.62099,15.56877 0.60603,3.23039 1.24,3.42506 4.63086,1.42203 z M 256.01237,513.9227 c 0.51353,-4.39873 -0.52732,-9.42767 -2.49741,-12.06639 -2.18072,-2.92083 -6.07777,-5.78744 -6.83643,-5.02879 -0.332,0.33199 -0.76801,2.87613 -0.96891,5.65363 -0.41904,5.79307 1.69687,10.69228 5.68702,13.16779 3.39209,2.10449 4.20397,1.80086 4.61573,-1.72624 z m 169.03453,-1.88878 c 3.60462,-2.22778 3.8378,-3.38146 1.17553,-5.81578 -5.59878,-5.11936 -14.36095,-6.34583 -21.00466,-2.94007 -2.00404,1.02731 -3.6437,2.2162 -3.6437,2.64198 0,1.19351 4.25189,5.96907 6.30814,7.08509 4.84874,2.63153 11.98901,2.22753 17.16469,-0.97122 z m -43.29002,-1.8122 c 2.89709,-2.89706 3.9748,-6.89109 3.27246,-12.12742 -0.57606,-4.29488 -1.79599,-5.71912 -3.8405,-4.48364 -2.12697,1.28528 -5.33473,7.97507 -5.33473,11.12548 0,3.1657 1.57656,8.09093 2.58992,8.09093 0.38911,0 1.87989,-1.17241 3.31285,-2.60535 z m -180.23695,-0.51597 c 1.63035,-0.77366 3.98197,-2.74092 5.22581,-4.37165 l 2.26153,-2.96501 -2.0956,-1.5896 c -2.91681,-2.21253 -9.53514,-3.65427 -13.61264,-2.96537 -3.58541,0.60576 -10.07161,4.72977 -10.92126,6.94391 -0.54591,1.42264 1.32041,3.21406 5.29166,5.07925 3.49617,1.64206 10.24805,1.57795 13.8505,-0.13148 z m 32.05359,-3.87387 c 1.54526,-5.73861 -0.50393,-12.86664 -4.50449,-15.66875 -1.77871,-1.24584 -1.97673,-1.20652 -2.97519,0.59096 -1.29359,2.3288 -1.4505,9.11676 -0.28181,12.19067 0.86054,2.26343 4.82237,6.45298 6.10221,6.45298 0.38451,0 1.13118,-1.60463 1.65928,-3.56586 z m 170.35783,-12.50517 c 0.40991,-4.26598 -1.40278,-9.64898 -3.24922,-9.64898 -0.46637,0 -1.63511,1.25385 -2.59725,2.78634 -1.36275,2.17056 -1.6806,3.85984 -1.43826,7.64387 0.17109,2.67163 0.83666,5.49078 1.47904,6.26476 1.06807,1.287 1.34876,1.22642 3.28403,-0.70885 1.4944,-1.49443 2.23523,-3.35621 2.52166,-6.33714 z m -191.42127,2.39627 c 2.26436,-4.3788 1.39109,-11.20976 -1.89764,-14.84374 -1.30026,-1.43678 -1.45301,-1.39226 -2.93535,0.85576 -2.45141,3.71765 -2.13279,10.57894 0.64455,13.87961 1.22075,1.45078 2.36824,2.63778 2.54998,2.63778 0.18176,0 0.91905,-1.13823 1.63846,-2.52941 z m 230.83163,-2.97262 c 4.54839,-3.02562 5.39821,-5.28807 2.71193,-7.21984 -5.64245,-4.05762 -12.1741,-4.54523 -18.52076,-1.38256 -6.00205,2.99096 -6.91937,4.21687 -4.85899,6.49354 5.05856,5.58969 14.05515,6.50766 20.66782,2.10886 z m -261.65427,-1.73811 c 1.6307,-0.68136 3.97282,-2.24675 5.20472,-3.47864 2.12297,-2.12298 2.16381,-2.32376 0.78299,-3.84956 -5.0247,-5.55222 -16.04813,-6.66998 -22.65575,-2.29728 -3.43229,2.2714 -3.48291,2.37529 -2.14906,4.411 1.76892,2.6997 9.32593,6.4533 12.99229,6.4533 1.57293,0 4.19409,-0.55747 5.82481,-1.23882 z m 238.75737,-8.40618 c 0.94645,-1.55224 1.70031,-4.31114 1.70209,-6.22904 0.002,-3.42962 -2.35775,-9.06116 -4.03281,-9.6195 -1.6781,-0.55937 -3.89688,5.78811 -3.49291,9.99247 0.32327,3.36437 2.63309,8.64241 3.78213,8.64241 0.18859,0 1.10714,-1.25386 2.0415,-2.78634 z m -226.13237,-4.98072 c 1.87162,-3.68283 1.91369,-7.82349 0.11798,-11.60771 -1.72105,-3.62686 -2.48172,-3.64815 -4.62704,-0.12953 -2.05655,3.373 -2.22399,9.15572 -0.36898,12.74292 1.62524,3.14288 2.90371,2.87929 4.87805,-1.00563 z m 265.74429,-4.79177 c 1.78904,-1.23981 4.07378,-3.58253 5.07715,-5.20603 1.68156,-2.72084 1.71565,-3.06047 0.43562,-4.3405 -2.13506,-2.13503 -11.51504,-2.47412 -15.54469,-0.56194 -3.4173,1.62162 -9.0134,6.8658 -9.0134,8.44658 0,1.09725 2.83941,3.01128 5.9743,4.02721 3.55614,1.15249 9.56349,0.0654 13.07102,-2.36532 z m -293.88946,-2.73147 c 1.37675,-0.79388 2.63985,-1.85344 2.80689,-2.35455 0.46879,-1.40636 -5.65565,-7.27052 -9.09468,-8.7082 -5.424,-2.26748 -16.36272,-1.12597 -16.36272,1.70754 0,1.89522 3.6805,6.65687 6.48526,8.39031 5.90044,3.64667 10.98791,3.95035 16.16525,0.9649 z m 273.09908,-8.11463 c 0.0338,-3.62056 -1.46835,-7.07935 -4.11448,-9.47408 -2.21915,-2.00832 -3.35473,-1.29636 -4.0775,2.55644 -0.74854,3.98994 0.78618,8.9352 3.66688,11.81593 l 2.30494,2.30493 1.09489,-1.97281 c 0.60221,-1.08506 1.10858,-3.43874 1.12527,-5.23041 z m -261.26617,-3.01573 c 1.20292,-2.68893 1.50022,-4.6223 1.08694,-7.06851 -0.62879,-3.72171 -1.31784,-4.49302 -3.32564,-3.72256 -3.89273,1.49379 -6.08933,10.318 -3.81241,15.31527 0.96116,2.10952 1.05976,2.13451 2.69647,0.68334 0.93435,-0.82842 2.44394,-3.17182 3.35464,-5.20754 z M 469.8483,448.07562 c 2.16687,-1.26987 4.59244,-3.69547 5.86234,-5.86234 3.63845,-6.20854 2.86284,-7.40354 -4.80526,-7.40354 -6.34435,0 -12.87977,3.96573 -15.82451,9.60242 -1.62529,3.11104 -1.53749,3.69469 0.71955,4.78322 3.60688,1.73951 10.04448,1.22639 14.04788,-1.11976 z M 153.67683,445.8712 c 1.48497,-0.51766 2.69993,-1.30841 2.69993,-1.75725 0,-1.91921 -2.78072,-5.91994 -6.07401,-8.73886 -3.39389,-2.90506 -10.32775,-5.2995 -12.9718,-4.47951 -0.60583,0.18785 -2.16437,0.57455 -3.46342,0.85928 -2.34725,0.51446 -2.35404,0.53647 -1.09463,3.55067 3.90002,9.33408 12.28274,13.57102 20.90393,10.56567 z m 297.09499,-5.76131 c 0,-4.39654 -2.30338,-8.74742 -5.55107,-10.48555 -2.42304,-1.29677 -3.352,-0.31325 -3.352,3.54888 0,4.55662 1.82316,8.66155 4.82382,10.86106 3.13377,2.29706 4.07925,1.38745 4.07925,-3.92439 z M 165.00747,439.035 c 2.5651,-2.74598 3.71177,-6.53593 3.22764,-10.66808 -0.38222,-3.26233 -1.69499,-3.49366 -4.83452,-0.85192 -3.16689,2.66475 -4.81858,7.21427 -4.06924,11.20861 0.69482,3.7037 2.41888,3.79826 5.67612,0.31139 z m 311.18037,-17.29959 c 2.10011,-1.06097 4.69244,-3.24422 5.76075,-4.85168 2.31086,-3.47715 4.17857,-9.26048 3.28028,-10.15719 -1.49267,-1.49 -8.87872,-0.48194 -12.64626,1.72598 -6.03977,3.53954 -11.25341,12.57878 -8.3249,14.43344 2.16962,1.37405 8.05657,0.8063 11.93013,-1.15055 z m -17.17562,-4.71534 c -0.005,-5.04736 -2.43904,-9.31174 -6.22935,-10.90916 -2.55938,-1.07863 -2.81881,-1.03523 -3.41993,0.57208 -0.75145,2.00922 0.53067,7.22584 2.36566,9.62529 1.32361,1.73076 5.54763,4.76885 6.64381,4.77848 0.35365,0.002 0.64156,-1.82691 0.63981,-4.06669 z m -313.91229,2.65297 c 1.69296,-0.45324 1.93288,-0.93343 1.51368,-3.02944 -1.68403,-8.42013 -13.71711,-16.53413 -20.60206,-13.89213 -1.91853,0.7362 -1.68625,3.17178 0.76353,8.0062 3.71412,7.32944 11.00296,10.8756 18.32485,8.91537 z m 11.85018,-5.72671 c 2.74321,-2.51398 3.16975,-3.45749 3.53069,-7.80995 0.40546,-4.88915 0.38521,-4.94286 -1.63241,-4.3316 -4.95263,1.50042 -9.10601,8.32217 -7.927,13.01972 0.68457,2.72757 2.36056,2.48343 6.02872,-0.87817 z m 324.22953,-20.53182 c 3.89953,-2.5806 7.84244,-9.70989 7.84244,-14.18019 v -2.94141 l -4.32042,0.41513 c -4.78866,0.46014 -9.23869,3.41339 -12.61373,8.3711 -2.24109,3.29197 -3.979,9.05416 -3.14016,10.41142 0.99815,1.61504 8.60523,0.32395 12.23187,-2.07605 z m -17.05061,-2.11443 c -0.0377,-3.99152 -1.48415,-6.6856 -4.74275,-8.83369 -3.72516,-2.45563 -6.3722,-2.21791 -6.3722,0.5723 0,4.78098 5.56675,11.39156 9.645,11.45358 1.17149,0.017 1.49367,-0.68185 1.46995,-3.19219 z m -322.65228,0.39678 c 0.17573,-0.1757 -0.27963,-2.33713 -1.01195,-4.80307 -2.30999,-7.77857 -9.36617,-13.81205 -16.15327,-13.81205 -2.91973,0 -3.08543,0.15214 -3.08543,2.83235 0,6.28213 5.79321,14.1595 11.8238,16.07747 2.11478,0.67256 7.65325,0.4789 8.42685,-0.2947 z m 9.4951,-2.28806 c 3.41747,-2.08376 5.33651,-4.95324 5.98494,-8.94906 0.44764,-2.75846 0.30036,-3.09133 -1.36776,-3.09133 -4.49139,0 -8.7682,3.94175 -9.70822,8.94764 -0.92785,4.94111 0.56865,5.85021 5.09104,3.09275 z m 314.90224,-23.65694 c 0,-5.23167 -4.54873,-9.81677 -9.73891,-9.81677 -2.92245,0 -2.93633,0.0194 -2.2583,3.02499 0.80614,3.57427 2.07924,5.2662 5.56719,7.39875 3.82969,2.34146 6.43002,2.09601 6.43002,-0.60697 z m 15.35036,-0.32799 c 3.45947,-2.46333 6.61634,-8.07307 7.30656,-12.98358 0.75395,-5.36395 0.0506,-6.92355 -2.81332,-6.2381 -8.26222,1.97746 -14.63906,9.88443 -14.68079,18.20339 l -0.0194,3.75518 3.7797,-0.42602 c 2.07882,-0.23428 4.97083,-1.2742 6.42669,-2.31087 z M 139.2301,361.1349 c 0,-6.93808 -4.17887,-13.56894 -10.55326,-16.74542 -2.39694,-1.19444 -5.10888,-2.17171 -6.02654,-2.17171 -1.53483,0 -1.62362,0.42918 -1.10846,5.35833 0.97827,9.36051 7.60271,16.88129 14.90192,16.91823 2.67388,0.0146 2.78634,-0.12199 2.78634,-3.35943 z m 10.90265,1.94183 c 3.54573,-1.68258 6.37529,-5.82644 6.04734,-8.85629 -0.19808,-1.83014 -0.60785,-2.10386 -2.80399,-1.87306 -4.83631,0.50819 -8.28119,3.93847 -9.41462,9.37471 -0.51471,2.46861 -0.36799,2.78634 1.2866,2.78634 1.02715,0 3.22526,-0.64428 4.88467,-1.4317 z m 313.98296,-24.50264 c -1.25687,-4.48221 -5.25057,-7.50165 -9.92209,-7.50165 -3.85757,0 -3.92622,0.0479 -3.38571,2.35767 0.30346,1.2967 1.88282,3.6115 3.5097,5.14398 2.42255,2.28199 3.64771,2.78634 6.76869,2.78634 h 3.81076 z m 13.69723,-1.35243 c 4.53076,-3.66705 6.49089,-8.15504 6.49247,-14.86546 6.6e-4,-3.14356 -0.24631,-5.96319 -0.54899,-6.26588 -0.89965,-0.89964 -6.12412,1.69611 -8.75221,4.3485 -3.39224,3.42364 -5.70631,8.28346 -6.28969,13.20911 -0.70078,5.91697 -0.0365,7.19457 3.38496,6.51029 1.52332,-0.30466 4.09436,-1.6261 5.71346,-2.93656 z m -323.3541,-1.00257 c 1.53857,-0.93807 3.45345,-3.08134 4.25528,-4.7628 1.26817,-2.65938 1.29462,-3.16453 0.20326,-3.88203 -1.54098,-1.01312 -6.41948,-0.23792 -8.95411,1.42285 -1.91937,1.25763 -3.34802,3.5812 -4.30705,7.00499 -0.4925,1.75825 -0.25066,1.92871 2.73245,1.92579 1.80002,-0.002 4.5316,-0.77072 6.07017,-1.7088 z m -13.06959,-0.90985 c 1.00979,-3.18157 -0.53825,-10.04276 -3.3038,-14.64305 -1.98945,-3.30928 -3.8046,-5.07261 -6.80356,-6.60927 -2.24961,-1.15273 -4.33089,-1.85517 -4.62503,-1.56101 -0.29417,0.29415 -0.71669,2.42732 -0.93894,4.74039 -0.74782,7.78269 3.20692,15.31467 9.55465,18.19727 4.52081,2.05299 5.43151,2.0345 6.11668,-0.12443 z m 317.62617,-21.29266 c 0,-5.04554 -8.35155,-9.31682 -13.88945,-7.10356 -1.31972,0.52744 -1.33906,0.8282 -0.2039,3.1693 1.42711,2.9434 3.93013,4.75157 7.66344,5.53603 3.6446,0.76579 6.43001,0.0719 6.43001,-1.60177 z m 10.46822,-2.8094 c 5.1957,-3.65887 8.07065,-10.85161 7.11491,-17.80061 -0.84988,-6.17938 -1.49747,-6.80009 -5.08116,-4.87014 -6.68177,3.59835 -10.80841,14.965 -8.526,23.48437 0.5966,2.22682 2.51639,1.98625 6.49225,-0.81362 z m -307.6327,-0.78645 c 1.25185,-0.98471 2.83754,-2.87609 3.52375,-4.20307 1.48769,-2.87689 0.69426,-3.43723 -4.86711,-3.43723 -2.77468,0 -4.0121,0.56715 -6.35988,2.91492 -1.60322,1.60323 -2.91494,3.72512 -2.91494,4.71534 0,1.58228 0.50535,1.80042 4.17105,1.80042 2.93166,0 4.84736,-0.532 6.44713,-1.79038 z m -14.58788,-2.71064 c 2.14173,-7.9918 -2.05752,-19.11611 -8.53227,-22.60299 -3.56882,-1.92193 -4.25589,-1.28569 -5.17459,4.79177 -1.06606,7.05225 2.21676,14.75039 7.72169,18.1072 3.52389,2.14882 5.35426,2.05829 5.98517,-0.29598 z m 302.28207,-16.8897 c 1.08097,-0.68382 1.08501,-1.08996 0.0304,-3.06069 -0.66885,-1.24972 -2.27152,-2.818 -3.56148,-3.48508 -2.99627,-1.54942 -8.48624,-1.56036 -10.59134,-0.0219 -1.55955,1.14039 -1.49637,1.32523 1.46507,4.28667 2.71044,2.71042 3.61145,3.09328 7.25297,3.08178 2.28695,-0.007 4.71893,-0.36794 5.40445,-0.80159 z m -278.00541,-4.28662 c 1.50239,-0.91608 3.14694,-2.44164 3.65456,-3.39013 0.76459,-1.42864 0.59906,-1.8979 -0.9647,-2.7348 -2.72741,-1.45964 -8.01454,-1.24068 -10.57658,0.43803 -3.03205,1.98667 -4.60743,5.49537 -2.94082,6.54983 2.12715,1.34584 7.96859,0.8803 10.82754,-0.86293 z m 290.77747,-4.66326 c 2.96409,-4.43557 3.64465,-13.57975 1.38383,-18.59335 -0.83418,-1.84987 -1.83104,-3.3634 -2.21524,-3.3634 -1.80233,0 -6.72349,6.31522 -8.0624,10.3463 -1.60551,4.83376 -1.40959,12.76002 0.39895,16.13929 0.97156,1.81539 1.04517,1.8221 3.62909,0.32937 1.45059,-0.83799 3.64018,-3.02418 4.86577,-4.85821 z M 157.12865,280.1247 c 1.28738,-5.11266 1.21403,-7.90835 -0.34523,-13.15897 -1.28386,-4.3232 -6.01542,-10.4813 -8.0533,-10.4813 -1.78532,0 -3.76319,6.21302 -3.73837,11.7432 0.0187,4.14719 0.51329,6.14837 2.2541,9.11885 2.10164,3.58615 7.0815,7.73804 8.34475,6.9573 0.3164,-0.19563 1.00853,-2.07612 1.53805,-4.17908 z M 443.4153,263.49178 c -0.87233,-15.06856 -11.4643,-28.30144 -25.21115,-31.49701 -5.61263,-1.30469 -5.65958,-1.13973 -2.50329,8.79906 3.63238,11.43786 10.62152,20.4031 20.54478,26.35358 7.40671,4.44143 7.63175,4.32667 7.16966,-3.65563 z m -266.99214,-1.67315 c 6.87732,-4.61203 11.64921,-10.27008 15.61964,-18.52024 2.73374,-5.68044 5.24881,-14.77156 4.33843,-15.68193 -0.92278,-0.92278 -10.56158,2.57321 -14.73836,5.34557 -8.79047,5.83478 -14.97811,17.73842 -14.97811,28.81449 0,4.89403 0.0821,5.08779 1.929,4.55523 1.06096,-0.30592 4.58418,-2.33682 7.8294,-4.51312 z"
         style="fill:#f3db9b;fill-opacity:1;stroke-width:0.226836"
         id="path10038" />
      <path
         id="path10040"
         style="fill:#ce9d1f;fill-opacity:1;stroke-width:0.226836"
         d="m 279.69785,93.998811 c -3.34286,0.05862 -6.42186,1.049551 -9.95395,3.066808 -5.5779,3.185671 -8.77217,9.106321 -8.77217,16.259611 0,15.27124 10.31492,23.14818 25.71999,19.64038 2.12192,-0.48316 5.35235,-1.86109 7.1785,-3.06178 3.20643,-2.1082 3.30148,-2.31183 2.80434,-5.93896 -0.58841,-4.29293 -0.0394,-6.36846 1.68284,-6.36846 0.65685,0 1.19432,-0.32768 1.19432,-0.7284 0,-0.93924 -13.0274,-0.17598 -14.10329,0.82635 -0.48751,0.4542 0.0953,0.7598 1.45177,0.7598 4.21488,0 6.42395,6.06627 3.65078,10.02552 -0.7898,1.12761 -2.89782,2.17948 -5.47178,2.7315 -10.14227,2.17513 -16.27988,-3.99167 -17.06587,-17.14625 -0.68484,-11.46166 2.84341,-17.013929 11.25376,-17.711382 6.28884,-0.52152 10.63583,1.554597 12.48575,5.962822 1.75351,4.17845 3.03313,4.21274 2.3472,0.0628 -0.29229,-1.76824 -0.53484,-4.323282 -0.54002,-5.677737 -0.007,-1.992752 -0.23465,-2.276702 -1.18929,-1.484426 -0.89152,0.739886 -2.41093,0.657835 -6.21651,-0.337826 -2.35043,-0.614946 -4.45066,-0.915528 -6.45637,-0.880357 z m 45.08535,0.455877 c -0.5045,-0.0032 -4.94161,7.781552 -9.85976,17.300722 -8.28805,16.04167 -9.1582,17.37876 -11.8955,18.27903 -3.42026,1.12489 -2.64511,2.01002 1.67155,1.90765 1.64775,-0.0391 4.44325,0.20668 6.21148,0.5463 3.60404,0.6922 4.51649,-0.66208 1.03483,-1.53592 -3.16903,-0.79537 -3.3539,-2.3541 -0.86403,-7.26766 2.44027,-4.81565 3.12359,-5.0346 11.93694,-3.8266 3.96763,0.54383 3.99448,0.56972 5.33741,5.18921 1.52045,5.23016 1.17747,7.12324 -1.29229,7.12324 -0.93002,0 -1.93017,0.38621 -2.22161,0.85775 -0.32249,0.52182 0.94325,0.85775 3.23384,0.85775 4.71984,0 21.2657,2.94462 23.61769,4.20336 2.10757,1.12794 2.72647,1.17856 2.72647,0.22103 0,-0.39585 -0.96366,-1.15954 -2.1425,-1.69667 -1.35546,-0.61759 -2.15283,-1.69208 -2.16761,-2.92363 -0.0328,-2.73187 6.19215,-24.66546 6.8796,-24.2406 0.31024,0.19174 4.16088,8.2761 8.55742,17.96506 4.39654,9.68897 8.41855,17.61339 8.9367,17.60966 0.51817,-0.003 2.64121,-6.17253 4.71826,-13.7077 2.07708,-7.53518 4.46907,-15.2482 5.31605,-17.13997 1.33989,-2.99276 1.90163,-3.43854 4.32518,-3.43854 3.88517,0 2.16268,-1.15533 -4.3101,-2.88973 -5.64863,-1.51358 -7.58804,-1.39342 -4.46585,0.27754 1.11981,0.5993 1.78835,1.80427 1.78835,3.22254 0,3.87231 -5.31117,22.62426 -6.31321,22.29024 -0.51245,-0.17081 -4.18825,-7.49887 -8.1681,-16.28472 -6.98465,-15.41921 -7.35023,-16.02049 -10.54043,-17.29695 -4.88856,-1.956023 -6.86125,-1.708426 -3.91326,0.49104 1.29673,0.96745 2.35725,2.3713 2.35725,3.11955 0,1.44841 -6.25083,24.22189 -7.68083,27.98306 -0.74023,1.94697 -1.34227,2.23543 -4.66677,2.23543 -2.97389,0 -4.16333,-0.44103 -5.38513,-1.99431 -0.86252,-1.09651 -3.8802,-9.96647 -6.70629,-19.71196 -2.8261,-9.7455 -5.55126,-17.721933 -6.05575,-17.725202 z m -86.48727,7.713492 c -2.36403,-0.003 -16.80866,3.62659 -20.61995,5.18167 -1.60916,0.65657 -1.59195,0.70283 0.27127,0.75729 4.93673,0.14428 5.51928,1.27235 10.51782,20.35496 2.83268,10.8142 2.82009,12.99162 -0.0766,13.74915 -0.94068,0.24599 -1.71048,0.8333 -1.71048,1.30484 0,0.48664 0.83405,0.61029 1.929,0.28633 1.06083,-0.31387 5.09779,-1.38253 8.9706,-2.37483 0,0 0.001,0 0.001,0 3.87258,-0.9923 6.84975,-2.11318 6.61587,-2.49162 -0.23379,-0.37848 -0.92503,-0.49689 -1.53592,-0.26247 -0.61087,0.23441 -2.12107,0.0424 -3.35565,-0.427 -1.78788,-0.67975 -2.59648,-1.9958 -3.97731,-6.46642 -2.13212,-6.90301 -1.75086,-8.18192 2.44013,-8.18192 3.73017,0 5.47711,1.62009 9.13135,8.46575 2.81077,5.26553 4.90498,6.61779 8.26607,5.33991 2.90289,-1.10368 5.57048,-4.95613 4.30635,-6.22027 -0.62793,-0.62793 -1.0729,-0.35537 -1.47188,0.9017 -1.01124,3.18612 -3.60217,2.12466 -6.12356,-2.50795 -2.30105,-4.22777 -6.4564,-7.69464 -9.22303,-7.69464 -2.1259,0 -1.67749,-1.17954 1.06245,-2.79806 7.69199,-4.54379 3.73318,-16.90482 -5.41777,-16.91642 z m -42.83359,0.1394 c -0.60789,-0.0383 -1.20213,0.19283 -1.54471,0.77612 -0.39558,0.67354 -2.01804,3.41973 -3.60557,6.10348 -1.58752,2.68372 -2.64492,5.1213 -2.34971,5.41651 0.78758,0.78758 9.56588,-8.61654 9.56588,-10.24781 0,-1.17347 -1.05274,-1.98442 -2.06589,-2.0483 z m 126.3294,0.71458 c 0.80628,0 3.29882,7.67236 4.10792,12.64525 0.38234,2.35011 0.20099,2.76261 -1.15917,2.63228 -0.88689,-0.085 -3.44547,-0.29937 -5.68527,-0.47597 -2.86595,-0.22599 -4.0715,-0.69408 -4.0715,-1.58113 0,-1.81497 5.8733,-13.22043 6.80802,-13.22043 z m -87.02477,1.75067 c 1.42723,-0.0182 2.84162,0.24712 3.87935,0.80249 1.9466,1.04179 3.46366,5.22705 3.46366,9.55709 0,3.65018 -1.86364,5.45219 -6.62717,6.40489 -2.62181,0.52436 -2.71037,0.43569 -4.04889,-4.0602 -2.47255,-8.30498 -2.60064,-10.74219 -0.62165,-11.80131 1.08837,-0.58248 2.52746,-0.88476 3.9547,-0.90296 z m -33.61936,10.25158 c -10.53388,0 -19.05138,7.96514 -19.05138,17.81687 0,8.22041 5.29475,17.62503 11.52,20.46297 3.49435,1.593 11.23909,0.97502 15.54879,-1.24078 11.65942,-5.99461 14.04977,-20.3277 5.12893,-30.74972 -3.77117,-4.40573 -7.70802,-6.28934 -13.14634,-6.28934 z m -2.77796,2.572 c 3.47033,0 4.76439,0.45731 7.10566,2.51297 6.34615,5.57201 10.02313,18.38363 7.20863,25.1197 -2.48351,5.94384 -9.44583,8.30528 -14.82165,5.02721 -5.99529,-3.65583 -10.08684,-12.96407 -9.59477,-21.82935 0.29752,-5.36019 0.57475,-6.10878 3.09318,-8.359 2.25895,-2.01837 3.54373,-2.47153 7.00895,-2.47153 z m 210.09522,1.04487 c -8.9597,0.24735 -17.23758,8.42675 -19.3327,19.68936 -1.14727,6.16735 2.41594,12.99014 8.71064,16.67907 6.9271,4.05955 12.77032,4.4361 19.02752,1.22698 6.17716,-3.16806 10.5525,-10.28726 11.11687,-18.0894 0.67889,-9.38579 -6.50838,-17.68886 -16.72553,-19.32265 -0.93535,-0.14957 -1.86993,-0.20894 -2.7968,-0.18336 z m 3.70729,2.68001 c 0.94178,-1.8e-4 1.91932,0.32291 3.60934,0.96826 4.98772,1.90483 6.75189,4.80017 6.68997,10.97998 -0.0389,3.88467 -0.6822,6.19312 -2.97262,10.67857 -5.1591,10.10344 -13.18697,13.99205 -20.13645,9.75426 -5.48062,-3.34206 -6.00137,-11.22232 -1.34754,-20.38762 2.97614,-5.86125 6.12599,-9.08651 10.76397,-11.02393 1.54634,-0.64595 2.45156,-0.96935 3.39333,-0.96952 z M 190.2568,561.28899 c -0.49879,0.0166 -0.19813,0.84211 0.87282,2.47655 0.79976,1.22059 1.27237,2.91564 1.04991,3.76632 -0.52764,2.01768 -19.07293,29.89513 -21.9248,32.95752 -2.28953,2.45852 -5.11003,2.98154 -7.93326,1.47061 -2.03859,-1.09103 -2.09915,-2.34847 -0.21476,-4.43068 1.35281,-1.49481 1.35152,-1.68511 -0.0163,-3.05299 -2.84783,-2.84782 -6.1645,1.75118 -4.07652,5.65262 0.48785,0.91154 2.53643,2.48872 4.55375,3.50385 4.42469,2.22651 8.32834,1.80211 12.48952,-1.35632 1.55115,-1.17736 6.99065,-8.37944 12.08765,-16.00468 5.097,-7.62525 9.93511,-14.41795 10.75141,-15.09542 1.17061,-0.97151 2.01296,-1.03285 3.98735,-0.2876 3.5335,1.33374 3.11103,-0.11248 -0.71082,-2.43134 -1.76824,-1.07285 -4.91594,-3.22988 -6.99388,-4.79361 -2.12526,-1.59934 -3.42324,-2.39145 -3.92204,-2.37483 z m 224.0767,7.92572 c -0.46168,-0.033 -2.45638,1.05397 -4.82878,2.6574 -2.71132,1.83247 -6.18352,3.96793 -7.716,4.74464 -3.5714,1.81006 -3.54303,2.44523 0.0791,1.76574 2.45755,-0.46104 3.16844,-0.17848 4.99455,1.99179 3.1735,3.77149 15.28758,23.78339 15.28758,25.25408 0,0.70099 -0.79975,2.29032 -1.77704,3.53273 -0.9773,1.24243 -1.58798,2.25929 -1.35759,2.25929 0.23039,0 4.79169,-2.74518 10.13604,-6.09971 5.34436,-3.35458 11.16622,-7.0266 12.93787,-8.16057 l 3.22127,-2.06213 -2.16384,-4.26992 c -1.19021,-2.34872 -2.36801,-4.26992 -2.61722,-4.26992 -0.24916,0 -0.19358,1.38007 0.12308,3.06807 0.75753,4.03805 -0.79136,6.81621 -5.25828,9.43401 -4.17741,2.44812 -7.33613,2.64536 -9.13638,0.57142 -3.22511,-3.71542 -14.39591,-23.32509 -14.39591,-25.27166 0,-1.19155 0.5787,-2.64684 1.286,-3.23384 0.70732,-0.58702 1.286,-1.40983 1.286,-1.82727 0,-0.0522 -0.0345,-0.0794 -0.10047,-0.0842 z m -208.44502,3.71735 c -0.52108,0.0452 -0.22868,0.59633 0.90925,1.65648 2.72648,2.5401 2.35059,5.18537 -2.11362,14.87942 -5.43014,11.79153 -6.38308,15.1427 -5.36001,18.84794 2.28415,8.27249 16.83946,13.65626 24.01203,8.88143 2.25137,-1.49875 4.27604,-4.66434 8.9141,-13.9325 5.78122,-11.55254 6.11139,-12.00931 9.002,-12.46315 l 3.0015,-0.47095 -5.90631,-2.74405 c -7.08433,-3.29156 -7.37695,-3.33124 -4.87273,-0.6656 1.79662,1.91239 1.86742,2.33978 0.88035,5.35874 -2.21851,6.7854 -9.46441,20.78777 -11.64432,22.50249 -2.72872,2.14641 -8.66313,2.38822 -12.31245,0.50109 -6.58167,-3.40352 -6.89138,-9.49788 -1.12022,-22.07675 5.7636,-12.56238 5.82542,-12.64101 9.99664,-12.70553 l 3.54529,-0.054 -3.00025,-1.38899 c -1.65036,-0.7634 -5.23045,-2.47442 -7.95587,-3.80274 -3.29035,-1.60368 -5.30541,-2.38141 -5.97538,-2.32333 z m 173.36385,11.91057 c -0.40612,0 -0.85504,9.03589 -0.99715,20.07993 -0.25049,19.46775 -0.31627,20.14301 -2.18646,22.13201 -2.82704,3.00666 -2.36845,3.48561 1.46559,1.52964 1.86734,-0.95266 3.77139,-1.73183 4.23099,-1.73183 0.45963,0 1.92149,-0.45745 3.2489,-1.016 l 2.41377,-1.01473 -3.42975,-0.48476 -3.4285,-0.48476 v -5.55844 -5.55717 l 5.86737,-2.35976 c 6.7113,-2.69887 7.64461,-2.48563 11.12692,2.53934 2.79217,4.02912 2.83282,4.75442 0.36671,6.58699 -1.75179,1.30176 -1.77188,1.39579 -0.21475,1.0185 0.94307,-0.22844 4.68983,-1.46545 8.32635,-2.74907 6.60438,-2.33123 7.86756,-3.78014 3.29662,-3.78014 -2.03422,0 -4.57412,-2.33074 -15.8841,-14.57425 -7.40488,-8.01606 -13.79637,-14.5755 -14.20251,-14.5755 z m -133.54432,6.01933 c -1.31417,0.0371 -1.04894,0.55386 1.12023,1.54219 1.15104,0.52445 2.31803,1.85182 2.59335,2.94876 0.57681,2.2982 -5.10309,28.58538 -6.55433,30.33403 -0.53205,0.64107 -1.86176,1.16544 -2.95504,1.16544 -3.36372,0 -3.18429,1.59559 0.2449,2.17766 1.78134,0.30237 5.74614,1.2558 8.81111,2.11863 6.74068,1.89758 15.34922,2.13235 19.10413,0.52118 3.87527,-1.66284 8.02412,-6.30251 9.58095,-10.71499 2.74952,-7.79301 1.13793,-14.90161 -4.70948,-20.77442 -4.3201,-4.33887 -6.18179,-5.12564 -18.87933,-7.97973 -4.14853,-0.9325 -7.04231,-1.37583 -8.35649,-1.33875 z m 113.11274,2.49916 c -1.00978,6.4e-4 -3.02466,0.33541 -5.90003,1.02353 -3.65437,0.87454 -7.51281,1.59378 -8.57375,1.59745 -1.06097,0.003 -1.929,0.39249 -1.929,0.86403 0,0.47154 0.9049,0.8565 2.01063,0.8565 1.10576,0 2.61234,0.67556 3.34812,1.50075 0.73578,0.82518 2.73699,7.89914 4.447,15.71959 2.81339,12.86649 3.16097,17.07341 1.41159,17.07341 -0.33095,0 -1.35027,0.56607 -2.26557,1.25837 -2.14014,1.6187 -0.74744,1.63318 5.42154,0.0565 2.7042,-0.69109 6.37419,-1.48114 8.15555,-1.75695 3.71549,-0.57529 3.4908,-2.12994 -0.30769,-2.12994 -3.2089,0 -3.50889,-0.69304 -6.78163,-15.64047 -3.24493,-14.82033 -3.30658,-17.501 -0.43579,-18.809 2.33395,-1.06343 2.69732,-1.61474 1.39903,-1.61379 z m 22.07298,0.91301 c 1.26849,0 10.54487,11.06111 10.00669,11.93192 -0.42536,0.68824 -9.15156,4.35658 -10.36335,4.35658 -0.21799,0 -0.39685,-3.6647 -0.39685,-8.14425 0,-4.47958 0.33955,-8.14425 0.75351,-8.14425 z m -122.31818,1.28474 c 0.7041,0.0292 1.66866,0.29883 3.14593,0.82008 8.62221,3.0421 10.83541,6.55592 10.21516,16.22068 -0.86166,13.42645 -8.41153,20.8564 -17.74153,17.45896 -4.95116,-1.80292 -5.00435,-2.45101 -1.48568,-18.34058 1.75918,-7.9441 3.68513,-14.93466 4.27997,-15.53498 0.43774,-0.44176 0.88205,-0.65338 1.58615,-0.62416 z m 65.46418,2.3359 c -2.77599,-0.0529 -4.12208,0.45584 -7.33673,2.10608 -6.90669,3.54554 -9.74575,8.02218 -10.1486,15.99965 -0.54129,10.71908 2.49956,17.12523 9.6789,20.38636 4.76248,2.1633 13.43891,2.10453 18.34811,-0.12307 4.59263,-2.08398 5.79133,-2.11715 6.911,-0.19467 0.69463,1.19262 0.86279,0.79698 0.82384,-1.929 -0.027,-1.88612 -0.33169,-5.35832 -0.67817,-7.716 -0.59533,-4.0512 -0.6661,-4.14622 -1.28097,-1.71549 -1.94718,7.69733 -4.35837,10.28953 -10.41987,11.19849 -4.9606,0.74389 -7.43104,0.0494 -11.00886,-3.09192 -3.77284,-3.31258 -5.66533,-8.88691 -5.64132,-16.61753 0.0316,-10.16891 3.33514,-15.22306 10.69866,-16.37013 5.6058,-0.87325 9.8222,1.05261 13.19155,6.0231 l 2.9048,4.28374 -0.54629,-4.19206 c -0.3007,-2.30559 -0.54756,-4.8129 -0.54756,-5.57225 0,-0.95075 -0.8668,-1.43473 -2.7855,-1.5535 -1.53248,-0.0948 -5.48776,-0.41136 -8.7885,-0.70328 -1.36533,-0.12074 -2.44916,-0.2009 -3.37449,-0.21852 z m -40.3495,0.61788 2.71014,1.42917 c 1.49003,0.78585 2.86332,2.24334 3.05173,3.23887 0.64254,3.39484 -1.72495,29.71118 -2.788,30.99209 -0.57206,0.68929 -1.95702,1.25334 -3.07811,1.25334 -1.1211,0 -2.03827,0.38496 -2.03827,0.85651 0,0.47153 2.02545,0.88685 4.501,0.92179 2.47555,0.035 6.2371,0.37219 8.359,0.74975 2.1219,0.37756 4.14735,0.7347 4.501,0.7937 0.35366,0.059 0.643,-0.27085 0.643,-0.73341 0,-0.46255 -0.97508,-1.08623 -2.16635,-1.38522 -3.64281,-0.91431 -3.87826,-2.5106 -2.68252,-18.19991 1.17164,-15.37309 1.77113,-17.29695 5.38261,-17.29695 1.1211,0 2.03826,-0.38621 2.03826,-0.85775 0,-0.47155 -1.44675,-0.85945 -3.215,-0.86278 -1.76824,-0.003 -5.91601,-0.20789 -9.21675,-0.45337 z" />
      <path
         d="m 330.35865,577.52834 c 23.04243,-2.8527 44.43313,-9.11389 65.64267,-19.21405 66.00903,-31.43399 111.90229,-94.95773 120.85659,-167.28523 1.71218,-13.82974 1.70999,-39.67757 -0.005,-52.83975 -6.46236,-49.61183 -28.72495,-93.80714 -64.54313,-128.12953 -27.28735,-26.14782 -60.3991,-44.52236 -96.17519,-53.37002 -17.73066,-4.38491 -27.30035,-5.6728 -46.29599,-6.23052 -59.49782,-1.74689 -114.96032,20.36773 -157.32153,62.72893 -17.38472,17.38475 -30.76833,36.06359 -41.15804,57.44223 -15.884392,32.68498 -22.627121,63.90568 -21.570924,99.87933 0.55772,18.99565 1.845617,28.56533 6.230523,46.29599 17.559471,71.0028 72.331261,129.53256 142.232631,151.99142 11.53441,3.70591 26.15748,7.02032 38.15135,8.64719 12.41071,1.6834 40.68074,1.72744 53.95532,0.0841 z m -46.23932,-2.13007 c -60.43632,-6.2739 -113.8959,-36.40455 -149.80644,-84.43321 -44.574437,-59.6162 -53.165329,-136.64756 -27.5092,-202.83152 9.79103,-25.25746 24.56973,-48.93513 44.23959,-69.46222 53.60206,-55.93811 131.98055,-78.15117 206.70805,-58.58264 75.63543,19.80628 134.21814,79.9988 152.22607,156.40905 3.98068,16.89053 5.11453,27.36324 5.15176,47.582 0.0651,35.45161 -6.09496,62.42205 -21.34418,93.44934 -11.20951,22.80769 -22.80558,39.08553 -40.32318,56.60314 -17.5176,17.5176 -33.79547,29.11369 -56.60314,40.32318 -21.17382,10.40647 -40.00842,16.2734 -63.44267,19.76222 -10.33365,1.53846 -39.1922,2.22962 -49.29666,1.18066 z M 72.990668,468.71148 c 0.112204,-0.0877 -1.317292,-3.88393 -3.176656,-8.43622 -7.34533,-17.9836 -13.202403,-39.5067 -15.935828,-58.55965 -0.737283,-5.13912 -1.528026,-10.59775 -1.757205,-12.13021 -0.362457,-2.42372 -0.747654,-2.78634 -2.959966,-2.78634 -2.888885,0 -2.845163,-1.92567 -0.360105,15.86067 2.695301,19.29119 10.344076,46.62605 17.463628,62.4108 2.497373,5.53693 2.724982,5.77638 4.575118,4.81354 1.070852,-0.5573 2.038806,-1.08495 2.151014,-1.17259 z m 470.755352,-8.82474 c 8.83911,-22.59383 14.48749,-45.18735 16.93228,-67.72935 l 0.58117,-5.35833 h -2.52157 -2.52154 l -1.85407,13.07433 c -2.9847,21.04682 -9.48852,44.79103 -17.2016,62.79969 l -2.57037,6.00132 1.86416,1.04128 c 1.0253,0.57271 2.12313,1.05497 2.43965,1.07166 0.31651,0.017 2.49986,-4.88856 4.85189,-10.9006 z M 53.932859,357.6711 l -6.437054,-6.43706 -6.201459,6.20145 -6.201457,6.20148 6.394738,6.4377 6.394736,6.43769 6.24378,-6.20211 6.243775,-6.20208 z m 509.891361,-0.2209 -6.20146,-6.20148 -6.43769,6.39475 -6.43772,6.39473 6.20211,6.24379 6.20211,6.24376 6.43704,-6.43704 6.43706,-6.43706 z M 52.162517,340.165 c 0.226474,-1.46437 0.849982,-6.1347 1.385594,-10.3785 2.346894,-18.59524 7.860213,-39.51751 15.458402,-58.66247 3.219056,-8.11099 3.973321,-10.83023 3.149175,-11.35336 -2.937652,-1.86477 -3.879848,-0.68793 -8.179742,10.21681 -8.529067,21.63017 -13.955879,43.66845 -16.836338,68.37236 -0.49936,4.28271 -0.497469,4.28674 2.055664,4.37717 2.224691,0.0787 2.608788,-0.25415 2.967245,-2.57201 z m 508.503003,-2.66259 c -2.4655,-23.44549 -9.97165,-52.59782 -18.67389,-72.52527 -2.94919,-6.75348 -3.23199,-6.93094 -7.32774,-4.59806 -0.12395,0.0707 0.79199,2.40606 2.03554,5.18987 8.67397,19.41756 16.36373,48.91817 18.79574,72.10705 0.55236,5.26673 0.58235,5.31592 3.13449,5.14398 l 2.57678,-0.17352 z"
         style="fill:#c4893f;fill-opacity:1;stroke-width:0.226836"
         id="path10042" />
    </g>
  </g>
</svg>
