<svg width="643mm" height="643mm" viewBox="0 0 643 643" xmlns="http://www.w3.org/2000/svg"><g transform="matrix(1.01657 0 0 1.0174 12.471 -49.44)"><ellipse ry="315.999" rx="316.26" cy="364.593" cx="303.992" fill="#fff"/><ellipse ry="307.158" rx="307.097" cy="364.663" cx="304.157" fill="#c4893f"/><ellipse ry="296.417" rx="296.476" cy="364.508" cx="304.107" fill="#252138"/><path d="M454.538 575.793c2.278-1.596 2.512-5.148.486-7.386-2.611-2.886-7.215-1.522-8.407 2.49-.414 1.397.015 2.499 1.59 4.073 2.505 2.505 3.706 2.661 6.33.823zm-307.592-9.811c.943-.943 1.715-2.4 1.715-3.239 0-2.522-2.512-5.335-4.764-5.335-2.533 0-5.524 2.786-5.524 5.144 0 2.209 2.936 5.144 5.144 5.144.943 0 2.486-.771 3.429-1.714zm327.501-6.002c.943-.943 1.715-2.486 1.715-3.429 0-.943-.772-2.486-1.715-3.43-.943-.942-2.486-1.714-3.429-1.714-2.125 0-5.144 2.907-5.144 4.953 0 4.647 5.306 6.887 8.573 3.62zm-345.895-12.392c2.452-2.452 2.601-3.664.77-6.278-1.595-2.278-5.148-2.512-7.385-.487-3.28 2.969-.95 8.328 3.829 8.802.375.037 1.629-.88 2.786-2.037zm365.4-6.707c1.502-1.162 1.336-5.376-.276-6.988-3.221-3.222-8.371-.555-7.915 4.099.404 4.128 4.653 5.626 8.19 2.889zm-381.777-11.955c1.71-2.44 1.687-4-.084-5.958-2.867-3.168-8.869-1.188-8.869 2.927 0 4.557 6.373 6.714 8.953 3.03zm398.427-6.372c.862-.78 1.568-2.324 1.568-3.43 0-2.46-2.817-5.44-5.144-5.44-.943 0-2.486.772-3.43 1.715-.942.943-1.714 2.486-1.714 3.43 0 2.268 2.958 5.143 5.29 5.143 1.025 0 2.568-.638 3.43-1.418zM96.51 509.694c1.834-1.66 2.029-4.482.458-6.63-1.709-2.338-6.644-1.556-8.243 1.305-1.13 2.023-1.108 2.493.207 4.501 1.717 2.62 5.178 2.996 7.578.824zm428.33-6.775c3.719-2.605 1.727-8.953-2.81-8.953-4.538 0-6.53 6.348-2.81 8.953 1.047.734 2.312 1.335 2.81 1.335.497 0 1.761-.6 2.81-1.335zM84.075 487.437c1.315-2.008 1.337-2.478.207-4.501-2.36-4.223-9.353-2.94-9.353 1.717 0 3.309 1.614 5.026 4.726 5.026 2.236 0 3.306-.543 4.42-2.242zM82.31 249.183c1.573-1.574 2.003-2.676 1.589-4.073-.708-2.384-2.767-4.058-4.993-4.058-4.466 0-6.562 6.409-2.928 8.954 2.625 1.838 3.826 1.682 6.332-.823zm448.721.443c.943-.943 1.715-2.4 1.715-3.239 0-2.522-2.512-5.335-4.764-5.335-2.533 0-5.524 2.786-5.524 5.144 0 2.209 2.936 5.144 5.144 5.144.943 0 2.486-.771 3.43-1.714zm-435.31-22.398c1.43-1.921 1.518-2.549.601-4.287-1.304-2.475-2.441-3.292-4.606-3.309-4.434-.035-6.484 6.407-2.854 8.966 2.572 1.813 4.827 1.363 6.86-1.37zm422.45.964c.943-.943 1.715-2.486 1.715-3.429 0-2.208-2.936-5.144-5.144-5.144s-5.144 2.936-5.144 5.144 2.936 5.144 5.144 5.144c.943 0 2.486-.772 3.43-1.715zm-407.723-20.208c2.966-2.966.51-8.084-3.88-8.084-2.442 0-5.06 2.616-5.06 5.053 0 3.711 6.169 5.802 8.94 3.03zm393.15.058c.589-.708 1.07-2.25 1.07-3.426 0-2.957-1.695-4.716-4.544-4.716-4.273 0-6.336 3.806-4.213 7.773 1.088 2.033 6.107 2.275 7.688.37zm-376.86-18.062c2.804-2.805.876-8.94-2.81-8.94-4.761 0-7.136 6.313-3.369 8.952 2.426 1.7 4.47 1.695 6.178-.012zm359.521.012c1.085-.76 1.906-2.237 1.906-3.43 0-2.532-2.786-5.523-5.144-5.523-2.208 0-5.144 2.936-5.144 5.144 0 2.125 2.907 5.144 4.953 5.144.838 0 2.381-.6 3.43-1.335zM145.6 172.833c1.745-1.745 1.722-5.013-.047-6.782-2.112-2.113-6.424-1.362-7.959 1.386-1.13 2.023-1.108 2.493.207 4.501 1.704 2.6 5.642 3.052 7.799.895zm322.676.319c.565-.566 1.028-2.225 1.028-3.687 0-3.365-1.35-4.715-4.715-4.715-3.365 0-4.715 1.35-4.715 4.715 0 3.365 1.35 4.715 4.715 4.715 1.462 0 3.12-.463 3.687-1.028zm-301.801-16.596c3.61-2.529 1.753-8.953-2.59-8.953-4.556 0-6.713 6.373-3.03 8.953 1.048.734 2.313 1.335 2.81 1.335.497 0 1.762-.6 2.81-1.335zm280.348 0c3.534-2.475 1.551-8.971-2.729-8.94-5.35.04-7.066 6.653-2.428 9.355 2.06 1.2 2.955 1.128 5.157-.415z" fill="#f3db9b"/><path d="M269.08 367c2.047-.515 4.915-1.962 6.372-3.215 3.06-2.63 5.963-8.707 4.16-8.707-.61 0-3.351-5.457-6.139-12.217-2.77-6.72-5.56-13.072-6.198-14.116-1.51-2.473-1.538-2.411 1.19-2.637 1.292-.107 6.25-1.541 11.018-3.188 9.267-3.2 13.447-3.598 18.568-1.77l3.215 1.147v-5.9c0-4.434-.293-5.9-1.178-5.9-2.418 0-8.042 2.537-15.085 6.805-11.318 6.86-19.876 8.53-24.105 4.702-1.527-1.382-1.522-1.47.158-2.83 1.127-.913 1.534-1.928 1.162-2.898-.809-2.109-2.686-1.852-4.283.585-1.217 1.857-1.226 2.341-.084 4.548.702 1.36 2.262 2.92 3.466 3.468l2.188.997-1.768 4.1c-.972 2.254-3.703 8.729-6.068 14.387-2.364 5.658-4.647 10.417-5.071 10.574-2.152.796.628 6.705 4.396 9.343 2.13 1.493 7.407 3.56 9.241 3.622.617.02 2.796-.384 4.844-.9zm-10.926-24.997c3.08-7.19 5.747-13.235 5.924-13.431.177-.197.323 5.687.323 13.074v13.432h-11.849zm7.104-.357c0-7.387.17-13.261.379-13.053.315.316 5.713 12.66 10.363 23.698l1.173 2.787h-11.915zM350.526 367c2.047-.515 4.915-1.962 6.373-3.215 3.042-2.614 5.957-8.7 4.177-8.72-.968-.01-12.69-26.586-12.666-28.719.005-.478.876-1.25 1.935-1.715 3.783-1.663 4.953-8.141 1.696-9.391-.745-.286-1.96.098-2.702.853-1.228 1.25-1.183 1.509.503 2.892 2.153 1.767 1.648 3.041-1.71 4.318-5.32 2.022-12.13-.005-24.051-7.16-4.297-2.579-9.275-4.95-11.065-5.27l-3.253-.582.205 5.946.204 5.946 3.049-1.09c4.946-1.77 9.213-1.346 18.401 1.827 4.768 1.647 9.726 3.081 11.019 3.188 2.46.204 2.824.651 1.634 2.007-.394.448-3.157 6.698-6.14 13.888-2.984 7.191-5.748 13.075-6.144 13.075-1.243 0-.771 2.903.879 5.405 1.922 2.916 4.54 4.823 8.623 6.283 3.837 1.371 4.453 1.387 9.033.234zM339.6 342.003c3.081-7.19 5.747-13.235 5.925-13.431.177-.197.322 5.687.322 13.074v13.432H334zm7.105-.357c0-7.387.17-13.261.378-13.053.316.316 5.714 12.66 10.363 23.698l1.174 2.787h-11.915z" fill="#c4893f"/><path d="M309.839 387.228l.428-49.726 4.588.195c2.522.107 5.705.752 7.073 1.434l2.486 1.24v-3.792c0-2.085-.29-3.792-.643-3.793-2.612-.002-13.596-2.878-14.115-3.695-.357-.56-.654-3.839-.661-7.285-.007-3.446-.429-8.942-.936-12.213-.792-5.1-.73-6.14.428-7.298 1.714-1.714 1.716-3.315.005-5.026-2.59-2.59-6.368-1.1-6.368 2.51 0 .99.428 2.23.951 2.753.698.697.698 2.841 0 8.024-.523 3.89-.951 9.85-.951 13.248v6.176l-6.618 1.067c-9.96 1.607-10.53 1.933-10.53 6.027v3.473l2.462-1.273c1.354-.7 5.019-1.535 8.145-1.855l5.683-.582v99.289l2.23 3.283 2.232 3.283 1.841-2.87c1.817-2.83 1.848-3.553 2.27-52.594zm-4.604 20.85c-.264-3.923-.677-21.504-.917-39.069-.43-31.473-.412-31.935 1.272-31.935 1.69 0 1.703.428 1.146 38.794-.31 21.337-.666 38.918-.792 39.07-.125.151-.444-2.935-.709-6.86z" fill="#f3db9b"/><path d="M310.928 458.343c11.833-4.845 20.607-6.537 37.063-7.147 8.487-.315 15.953-.898 16.59-1.296.638-.399 1.796-2.125 2.573-3.835 1.273-2.804 1.437-10.913 1.664-82.2l.252-79.089h-3.074c-5.8 0-16.036-2.678-25.161-6.585-5.024-2.15-10.504-4.096-12.178-4.324-2.704-.37-3.307-.072-5.388 2.656-1.288 1.689-4.162 4.14-6.386 5.448-3.566 2.096-4.903 2.376-11.33 2.37-8.509-.01-11.051-1.076-16.755-7.028-4.595-4.796-5.505-4.746-18.722 1.008-9.285 4.043-18.079 6.414-23.894 6.44l-3.215.015.005 78.66c.003 51.725.31 79.758.895 81.866.49 1.762 1.741 3.682 2.782 4.267 1.181.663 7.684 1.279 17.323 1.64 16.404.615 24.276 2.165 36.008 7.089 2.83 1.187 5.248 2.175 5.375 2.195.128.02 2.635-.948 5.573-2.15zm-15.407-4.313c-12.147-4.038-21.576-5.503-35.414-5.503-9.916 0-11.973-.225-12.962-1.417-.975-1.174-1.22-14.997-1.425-80.467l-.248-79.049 6.293-1.015c3.46-.558 10.517-2.77 15.68-4.915 15.552-6.46 14.434-6.324 18.63-2.273 6.23 6.014 10.092 7.505 19.478 7.518 9.409.012 13.794-1.626 19.707-7.365 1.894-1.838 3.831-3.34 4.306-3.34.475 0 5.393 1.901 10.93 4.227 5.537 2.325 13.454 4.922 17.594 5.77l7.527 1.544-.24 78.974c-.199 65.414-.442 79.217-1.417 80.39-.99 1.193-3.046 1.418-12.962 1.418-13.837 0-23.128 1.444-35.946 5.588-5.079 1.642-9.583 2.949-10.01 2.904-.426-.045-4.711-1.39-9.522-2.99z" fill="#c4893f"/><path d="M308.347 486.714c3.493-4.377 9.017-7.838 16.61-10.407 6.102-2.064 8.459-2.34 24.748-2.903 13.19-.455 18.981-.99 21.657-1.998 8.83-3.326 14.68-9.685 17.896-19.45 1.443-4.38 1.585-10.644 2.005-88.305.33-61.005.72-84.056 1.444-85.314 1.933-3.36 4.398-4.927 7.118-4.528 2.112.31 2.606.078 2.606-1.223 0-.883-.947-2.552-2.104-3.71-1.828-1.827-2.882-2.104-8.027-2.104h-5.923l-.456-5.675c-.472-5.886-2.487-9.923-5.219-10.46-1.12-.221-1.301.218-.905 2.2.771 3.856-2.84 7.583-8.48 8.754-6.137 1.274-11.077.195-23.886-5.217-9.141-3.862-11.544-4.525-17.61-4.858-9.95-.546-11.122-.121-11.87 4.302-1.643 9.726-14.068 13.703-21.038 6.734-2.232-2.233-4.592-8.202-3.77-9.533.64-1.036-3.075-1.656-9.881-1.649-6.765.007-9.605.83-25.274 7.321-6.205 2.57-8.787 3.19-13.302 3.19-8.723 0-14.53-4.02-13.239-9.164.829-3.3-1.797-2.93-3.921.552-1.214 1.991-1.7 4.317-1.702 8.145l-.003 5.358h-6.335c-7.038 0-9.463 1.233-10.424 5.299-.476 2.013-.323 2.24 1.235 1.832 3.078-.804 6.003.502 7.578 3.384 1.41 2.581 1.549 8.556 1.992 85.935.41 71.49.661 83.763 1.795 87.448 2.571 8.353 6.15 13.824 11.252 17.2 6.501 4.303 9.4 4.872 28.486 5.59 24.113.907 31.136 2.97 39.438 11.584 2.357 2.446 4.48 4.49 4.715 4.541.236.052 1.493-1.24 2.794-2.871zm-8.796-19.442c-10.721-5.532-16.988-6.87-35.295-7.539-15.531-.566-17.184-.78-20.926-2.706-4.638-2.386-6.733-5.689-8.065-12.716-1.355-7.145-1.155-159.362.213-162.024 1.943-3.78 5.172-5.38 12.327-6.11 7.305-.746 11.675-2.039 21.682-6.415 14.06-6.147 17.703-6.024 24.347.825 8.234 8.49 14.863 8.42 23.958-.249 5.016-4.78 5.162-4.85 9.929-4.733 3.518.087 6.826.988 12.125 3.306 11.788 5.154 16.295 6.518 23.957 7.25 6.86.654 7.39.853 10.099 3.81l2.859 3.12-.24 81.646-.238 81.647-2.144 4.286c-1.706 3.413-2.997 4.71-6.333 6.364-3.814 1.89-5.66 2.132-20.576 2.695-18.184.686-24.22 1.928-35.395 7.284-3.381 1.621-6.468 2.89-6.858 2.82-.39-.07-2.832-1.223-5.426-2.561zm-64.806-239.894l6.135-3.387 6.299 3.418c3.465 1.88 6.468 3.25 6.674 3.044.206-.206-.106-3.516-.694-7.355l-1.069-6.98 5.359-5.407 5.358-5.406-7.562-1.038-7.562-1.038-3.29-7.023-3.288-7.022-3.52 7.02-3.52 7.02-7.613 1.04-7.614 1.04 5.499 5.658 5.499 5.656-1.098 6.002c-1.294 7.078-1.381 8.144-.665 8.144.295 0 3.298-1.524 6.672-3.386zm129.839.073l6.305-3.228 6.4 3.354c3.52 1.844 6.534 3.22 6.697 3.056.163-.163-.3-3.527-1.027-7.474l-1.323-7.177 5.254-4.68c2.89-2.574 5.253-4.995 5.253-5.38 0-.385-3.315-1.17-7.366-1.746l-7.367-1.046-3.303-6.832-3.304-6.832-3.438 6.838-3.438 6.838-7.325 1.04c-4.03.572-7.328 1.29-7.331 1.594-.002.305 2.362 2.685 5.257 5.29l5.264 4.734-1.266 7.482c-.696 4.115-1.036 7.463-.756 7.44.28-.024 3.346-1.495 6.814-3.27zm-63.878-11.244l6.218-3.413 6.387 3.39c3.513 1.865 6.62 3.4 6.904 3.413.284.012-.07-3.277-.789-7.31l-1.305-7.33 5.37-5.419 5.37-5.418-2.867-.51c-1.576-.28-4.914-.767-7.416-1.084l-4.55-.575-3.496-6.953-3.496-6.952-3.447 6.955-3.448 6.954-6.867.971c-3.777.534-7.092 1.207-7.368 1.495-.275.288 1.936 2.739 4.915 5.447l5.415 4.925-1.343 7.079c-.739 3.894-1.343 7.23-1.343 7.413 0 .713 1.15.218 7.156-3.078zm56.155 335.495c1.718-.46 1.936-.92 1.49-3.144-1.326-6.634-7.71-13.395-14.99-15.876-3.33-1.136-10.919-1.335-11.556-.303-.803 1.299 1.038 7.191 3.482 11.144 4.163 6.733 13.606 10.313 21.574 8.18zm-33.304-5.868v-4.715h-36.008v9.431h36.008zm-59.035 2.006c6.971-2.088 13.533-10.205 13.577-16.795l.019-2.786h-4.743c-8.271 0-15.012 3.993-19.268 11.414-3.113 5.428-3.308 8.043-.637 8.557 3.791.73 7.783.59 11.052-.39zm117.027-5.126c4.295-1.082 5.27-2.428 3.915-5.402-3.191-7.003-11.916-12.468-19.898-12.462-7.604.005-8.839.582-8.304 3.878.62 3.819 4.498 9.446 8.002 11.612 5.438 3.36 9.825 4 16.285 2.374zm-142.44-3.399c4.555-1.147 10.173-5.77 12.461-10.257 3.274-6.416 2.147-7.624-7.13-7.646-6.158-.015-9.72 1.435-14.614 5.946-4.005 3.69-6.242 7.734-5.439 9.827.262.683 2.138 1.613 4.17 2.067 5.099 1.14 6.247 1.147 10.551.063zm84.448-5.055v-5.144h-36.008v10.288h36.008zm82.09-5.12c2.003-.91 3.643-2.239 3.643-2.953 0-2.013-5.028-7.259-8.92-9.306-5.952-3.131-18.78-2.09-19.986 1.622-.575 1.77 5.314 8.45 9.167 10.4 4.767 2.41 11.1 2.504 16.095.237zm-183.037-4.832c2.002-1.405 4.56-4.22 5.684-6.253 2.285-4.135 2.064-4.54-3.33-6.077-8.701-2.481-17.398.51-22.833 7.851l-2.115 2.857 1.884 1.286c6.214 4.242 14.946 4.383 20.71.336zm100.947-1.622v-4.715h-36.008v9.431h36.008zm13.01 1.738c3.678-2.499 6.106-7.99 5.697-12.884-.34-4.073-1.29-4.438-5.048-1.94-3.732 2.48-6.8 8.467-6.8 13.268 0 4.426 1.405 4.781 6.15 1.556zm-56.734-4.985c0-2.11-.822-5.304-1.93-7.495-1.89-3.744-6.92-8.023-8.728-7.428-.504.166-1.016 2.2-1.138 4.52-.276 5.267 2.35 10.208 6.638 12.49 4.467 2.376 5.158 2.097 5.158-2.087zm78.876-.32c5.064-2.99 7.965-13.565 4.879-17.785-1.057-1.446-1.28-1.4-3.89.795-4.504 3.79-6.693 9.853-5.62 15.569.606 3.23 1.24 3.425 4.63 1.422zm-102.697-5.196c.514-4.399-.527-9.428-2.497-12.067-2.18-2.92-6.078-5.787-6.836-5.028-.332.332-.768 2.876-.97 5.653-.418 5.793 1.697 10.692 5.688 13.168 3.392 2.104 4.204 1.8 4.615-1.726zm169.035-1.89c3.605-2.227 3.838-3.38 1.175-5.815-5.598-5.12-14.36-6.346-21.004-2.94-2.004 1.027-3.644 2.216-3.644 2.642 0 1.194 4.252 5.97 6.308 7.085 4.849 2.632 11.99 2.228 17.165-.971zm-43.29-1.811c2.897-2.897 3.975-6.891 3.272-12.128-.576-4.295-1.796-5.719-3.84-4.483-2.127 1.285-5.335 7.975-5.335 11.125 0 3.166 1.577 8.091 2.59 8.091.39 0 1.88-1.172 3.313-2.605zm-180.237-.516c1.63-.774 3.982-2.741 5.226-4.372l2.261-2.965-2.095-1.59c-2.917-2.212-9.535-3.654-13.613-2.965-3.585.606-10.072 4.73-10.921 6.944-.546 1.423 1.32 3.214 5.291 5.08 3.497 1.641 10.248 1.577 13.85-.132zm32.054-3.874c1.545-5.739-.504-12.867-4.505-15.669-1.779-1.246-1.977-1.206-2.975.591-1.294 2.329-1.45 9.117-.282 12.19.86 2.264 4.822 6.454 6.102 6.454.385 0 1.131-1.605 1.66-3.566zm170.357-12.505c.41-4.266-1.402-9.65-3.249-9.65-.466 0-1.635 1.255-2.597 2.787-1.363 2.17-1.68 3.86-1.438 7.644.17 2.672.836 5.49 1.479 6.265 1.068 1.287 1.348 1.226 3.284-.71 1.494-1.494 2.235-3.355 2.521-6.336zm-191.42 2.396c2.263-4.379 1.39-11.21-1.899-14.844-1.3-1.437-1.453-1.392-2.935.856-2.451 3.718-2.133 10.579.645 13.88 1.22 1.45 2.368 2.637 2.55 2.637.181 0 .919-1.138 1.638-2.529zm230.83-2.973c4.55-3.025 5.399-5.288 2.713-7.22-5.643-4.057-12.174-4.545-18.521-1.382-6.002 2.99-6.92 4.217-4.86 6.493 5.06 5.59 14.056 6.508 20.669 2.11zm-261.654-1.738c1.631-.681 3.973-2.247 5.205-3.478 2.123-2.123 2.164-2.324.783-3.85-5.025-5.552-16.048-6.67-22.656-2.297-3.432 2.271-3.483 2.375-2.149 4.41 1.77 2.7 9.326 6.454 12.993 6.454 1.573 0 4.194-.557 5.824-1.239zm238.758-8.406c.946-1.552 1.7-4.311 1.702-6.229.002-3.43-2.358-9.061-4.033-9.62-1.678-.559-3.897 5.789-3.493 9.993.323 3.364 2.633 8.642 3.782 8.642.189 0 1.107-1.253 2.042-2.786zm-226.133-4.98c1.872-3.683 1.914-7.824.118-11.608-1.72-3.627-2.481-3.649-4.627-.13-2.056 3.373-2.224 9.156-.369 12.743 1.626 3.143 2.904 2.88 4.878-1.006zm265.745-4.792c1.789-1.24 4.074-3.583 5.077-5.206 1.681-2.721 1.716-3.06.435-4.341-2.135-2.135-11.515-2.474-15.544-.562-3.417 1.622-9.014 6.866-9.014 8.447 0 1.097 2.84 3.011 5.975 4.027 3.556 1.152 9.563.065 13.07-2.365zm-293.89-2.732c1.377-.794 2.64-1.853 2.807-2.354.469-1.407-5.655-7.271-9.095-8.709-5.424-2.267-16.362-1.126-16.362 1.708 0 1.895 3.68 6.657 6.485 8.39 5.9 3.647 10.988 3.95 16.165.965zm273.1-8.115c.033-3.62-1.469-7.079-4.115-9.474-2.22-2.008-3.355-1.296-4.078 2.557-.748 3.99.787 8.935 3.667 11.816l2.305 2.305 1.095-1.973c.602-1.085 1.109-3.439 1.125-5.23zM178 458.972c1.203-2.69 1.5-4.623 1.087-7.069-.629-3.721-1.318-4.493-3.326-3.722-3.892 1.493-6.089 10.318-3.812 15.315.961 2.11 1.06 2.134 2.697.683.934-.828 2.443-3.172 3.354-5.207zm291.848-10.896c2.167-1.27 4.593-3.696 5.863-5.863 3.638-6.208 2.862-7.403-4.806-7.403-6.344 0-12.88 3.965-15.824 9.602-1.625 3.111-1.538 3.695.72 4.783 3.606 1.74 10.044 1.227 14.047-1.12zm-316.171-2.205c1.485-.517 2.7-1.308 2.7-1.757 0-1.92-2.781-5.92-6.074-8.739-3.394-2.905-10.328-5.3-12.972-4.48-.606.188-2.164.575-3.463.86-2.348.514-2.355.536-1.095 3.55 3.9 9.335 12.283 13.572 20.904 10.566zm297.095-5.761c0-4.397-2.304-8.748-5.551-10.486-2.423-1.296-3.352-.313-3.352 3.55 0 4.556 1.823 8.66 4.824 10.86 3.133 2.297 4.079 1.388 4.079-3.924zm-285.765-1.075c2.566-2.746 3.712-6.536 3.228-10.668-.382-3.262-1.695-3.494-4.834-.852-3.167 2.665-4.819 7.214-4.07 11.209.695 3.703 2.42 3.798 5.676.311zm311.18-17.3c2.1-1.06 4.693-3.244 5.762-4.851 2.31-3.477 4.178-9.26 3.28-10.157-1.493-1.49-8.879-.482-12.646 1.726-6.04 3.54-11.254 12.578-8.325 14.433 2.17 1.374 8.056.806 11.93-1.15zm-17.175-4.715c-.005-5.047-2.439-9.312-6.23-10.91-2.559-1.078-2.818-1.034-3.42.573-.75 2.01.532 7.226 2.367 9.625 1.323 1.731 5.547 4.77 6.643 4.779.354.002.642-1.827.64-4.067zM145.1 419.673c1.693-.453 1.933-.933 1.514-3.03-1.684-8.42-13.717-16.534-20.602-13.892-1.919.737-1.687 3.172.763 8.007 3.714 7.33 11.003 10.875 18.325 8.915zm11.85-5.727c2.743-2.514 3.17-3.457 3.53-7.81.406-4.889.386-4.942-1.632-4.331-4.952 1.5-9.106 8.322-7.927 13.02.685 2.727 2.361 2.483 6.03-.879zm324.23-20.531c3.9-2.581 7.842-9.71 7.842-14.18v-2.942l-4.32.415c-4.789.46-9.239 3.413-12.614 8.371-2.241 3.292-3.98 9.054-3.14 10.412.998 1.615 8.605.324 12.232-2.076zm-17.051-2.115c-.038-3.991-1.484-6.686-4.743-8.834-3.725-2.455-6.372-2.218-6.372.573 0 4.78 5.567 11.391 9.645 11.453 1.172.017 1.494-.682 1.47-3.192zm-322.652.397c.175-.176-.28-2.337-1.012-4.803-2.31-7.779-9.366-13.812-16.153-13.812-2.92 0-3.086.152-3.086 2.832 0 6.282 5.793 14.16 11.824 16.078 2.115.672 7.653.478 8.427-.295zm9.495-2.288c3.417-2.084 5.336-4.953 5.985-8.95.447-2.758.3-3.09-1.368-3.09-4.491 0-8.768 3.941-9.708 8.947-.928 4.941.568 5.85 5.09 3.093zm314.902-23.657c0-5.232-4.549-9.817-9.739-9.817-2.922 0-2.936.02-2.258 3.025.806 3.574 2.08 5.266 5.567 7.399 3.83 2.341 6.43 2.096 6.43-.607zm15.35-.328c3.46-2.463 6.617-8.073 7.307-12.984.754-5.364.05-6.923-2.813-6.238-8.263 1.978-14.64 9.885-14.681 18.204l-.02 3.755 3.78-.426c2.079-.235 4.971-1.274 6.427-2.311zm-341.994-4.29c0-6.937-4.179-13.568-10.553-16.745-2.397-1.194-5.109-2.171-6.027-2.171-1.535 0-1.623.429-1.108 5.358.978 9.36 7.603 16.881 14.902 16.918 2.674.015 2.786-.122 2.786-3.36zm10.903 1.943c3.545-1.683 6.375-5.827 6.047-8.857-.198-1.83-.608-2.103-2.804-1.873-4.836.509-8.281 3.939-9.415 9.375-.514 2.469-.368 2.786 1.287 2.786 1.027 0 3.225-.644 4.885-1.431zm313.983-24.503c-1.257-4.482-5.25-7.502-9.922-7.502-3.858 0-3.927.048-3.386 2.358.303 1.297 1.883 3.612 3.51 5.144 2.422 2.282 3.647 2.786 6.768 2.786h3.811zm13.697-1.352c4.53-3.667 6.49-8.155 6.492-14.866.001-3.143-.246-5.963-.549-6.266-.9-.9-6.124 1.696-8.752 4.349-3.392 3.423-5.706 8.283-6.29 13.209-.7 5.917-.036 7.195 3.385 6.51 1.524-.304 4.095-1.626 5.714-2.936zm-323.354-1.003c1.538-.938 3.453-3.081 4.255-4.763 1.268-2.66 1.295-3.164.203-3.882-1.54-1.013-6.42-.238-8.954 1.423-1.92 1.258-3.348 3.581-4.307 7.005-.492 1.758-.25 1.929 2.733 1.926 1.8-.002 4.531-.77 6.07-1.709zm-13.07-.91c1.01-3.181-.538-10.043-3.304-14.643-1.989-3.31-3.804-5.072-6.803-6.61-2.25-1.152-4.331-1.854-4.625-1.56-.294.294-.717 2.427-.94 4.74-.747 7.783 3.208 15.315 9.556 18.198 4.52 2.053 5.431 2.034 6.116-.125zm317.626-21.292c0-5.046-8.351-9.317-13.889-7.104-1.32.527-1.34.828-.204 3.17 1.427 2.943 3.93 4.75 7.664 5.535 3.644.766 6.43.072 6.43-1.601zm10.469-2.81c5.195-3.659 8.07-10.851 7.115-17.8-.85-6.18-1.498-6.8-5.082-4.87-6.681 3.598-10.808 14.964-8.526 23.484.597 2.227 2.517 1.986 6.493-.814zm-307.633-.786c1.252-.985 2.837-2.876 3.524-4.203 1.487-2.877.694-3.438-4.867-3.438-2.775 0-4.013.568-6.36 2.915-1.604 1.604-2.915 3.725-2.915 4.716 0 1.582.505 1.8 4.17 1.8 2.932 0 4.848-.532 6.448-1.79zm-14.588-2.71c2.142-7.993-2.057-19.117-8.532-22.604-3.569-1.922-4.256-1.286-5.175 4.792-1.066 7.052 2.217 14.75 7.722 18.107 3.524 2.149 5.354 2.058 5.985-.296zm302.282-16.89c1.081-.684 1.085-1.09.03-3.061-.668-1.25-2.271-2.818-3.561-3.485-2.996-1.55-8.486-1.56-10.591-.022-1.56 1.14-1.497 1.325 1.465 4.286 2.71 2.71 3.611 3.094 7.253 3.082 2.287-.007 4.719-.368 5.404-.801zm-278.005-4.287c1.502-.916 3.147-2.442 3.654-3.39.765-1.429.6-1.898-.964-2.735-2.728-1.46-8.015-1.24-10.577.438-3.032 1.987-4.607 5.495-2.94 6.55 2.126 1.346 7.968.88 10.827-.863zm290.777-4.663c2.964-4.436 3.645-13.58 1.384-18.594-.834-1.85-1.831-3.363-2.215-3.363-1.803 0-6.724 6.315-8.063 10.346-1.605 4.834-1.41 12.76.4 16.14.97 1.815 1.044 1.821 3.628.329 1.451-.838 3.64-3.024 4.866-4.858zm-305.188-1.746c1.287-5.113 1.214-7.909-.346-13.16-1.283-4.322-6.015-10.48-8.053-10.48-1.785 0-3.763 6.212-3.738 11.743.018 4.147.513 6.148 2.254 9.118 2.101 3.587 7.081 7.739 8.345 6.958.316-.196 1.008-2.076 1.538-4.18zm286.286-16.633c-.872-15.069-11.464-28.302-25.21-31.497-5.613-1.305-5.66-1.14-2.504 8.799 3.632 11.438 10.621 20.403 20.545 26.353 7.406 4.442 7.631 4.327 7.17-3.655zm-266.992-1.673c6.877-4.612 11.65-10.27 15.62-18.52 2.734-5.681 5.249-14.772 4.338-15.683-.923-.922-10.561 2.574-14.738 5.346-8.79 5.835-14.978 17.738-14.978 28.815 0 4.894.082 5.087 1.929 4.555 1.06-.306 4.584-2.337 7.83-4.513z" fill="#f3db9b"/><path d="M279.698 93.999c-3.343.058-6.422 1.05-9.954 3.067-5.578 3.185-8.772 9.106-8.772 16.26 0 15.27 10.315 23.147 25.72 19.64 2.122-.484 5.352-1.861 7.178-3.062 3.207-2.108 3.302-2.312 2.805-5.94-.589-4.292-.04-6.368 1.682-6.368.657 0 1.195-.327 1.195-.728 0-.94-13.028-.176-14.104.826-.487.455.096.76 1.452.76 4.215 0 6.424 6.066 3.651 10.026-.79 1.127-2.898 2.18-5.472 2.731-10.142 2.175-16.28-3.991-17.066-17.146-.685-11.462 2.844-17.014 11.254-17.711 6.289-.522 10.636 1.554 12.486 5.962 1.753 4.179 3.033 4.213 2.347.063-.292-1.768-.535-4.323-.54-5.678-.007-1.992-.235-2.276-1.19-1.484-.89.74-2.41.658-6.216-.338-2.35-.615-4.45-.915-6.456-.88zm45.085.456c-.504-.004-4.941 7.781-9.86 17.3-8.288 16.042-9.158 17.38-11.895 18.28-3.42 1.124-2.645 2.01 1.671 1.907 1.648-.039 4.444.207 6.212.546 3.604.693 4.516-.662 1.035-1.536-3.17-.795-3.354-2.354-.864-7.267 2.44-4.816 3.123-5.035 11.937-3.827 3.967.544 3.994.57 5.337 5.19 1.52 5.23 1.178 7.123-1.292 7.123-.93 0-1.93.386-2.222.857-.322.522.943.858 3.234.858 4.72 0 21.266 2.945 23.618 4.204 2.107 1.127 2.726 1.178 2.726.22 0-.395-.963-1.159-2.142-1.696-1.356-.618-2.153-1.692-2.168-2.924-.033-2.732 6.192-24.665 6.88-24.24.31.191 4.16 8.276 8.557 17.965s8.419 17.613 8.937 17.61c.518-.004 2.641-6.173 4.718-13.708 2.077-7.536 4.47-15.249 5.316-17.14 1.34-2.993 1.902-3.439 4.325-3.439 3.885 0 2.163-1.155-4.31-2.89-5.648-1.513-7.588-1.393-4.466.278 1.12.6 1.789 1.804 1.789 3.223 0 3.872-5.311 22.624-6.313 22.29-.513-.171-4.189-7.5-8.169-16.285-6.984-15.42-7.35-16.02-10.54-17.297-4.889-1.956-6.861-1.708-3.913.491 1.296.968 2.357 2.371 2.357 3.12 0 1.448-6.25 24.222-7.68 27.983-.741 1.947-1.343 2.235-4.668 2.235-2.974 0-4.163-.44-5.385-1.994-.862-1.097-3.88-9.967-6.706-19.712-2.826-9.746-5.551-17.722-6.056-17.725zm-86.487 7.713c-2.364-.003-16.809 3.627-20.62 5.182-1.61.656-1.592.703.271.757 4.937.144 5.52 1.272 10.518 20.355 2.833 10.814 2.82 12.992-.077 13.75-.94.245-1.71.833-1.71 1.304 0 .487.834.61 1.929.286 1.06-.313 5.098-1.382 8.97-2.374h.002c3.872-.993 6.85-2.114 6.615-2.492-.233-.379-.925-.497-1.535-.263-.611.235-2.122.043-3.356-.427-1.788-.68-2.597-1.995-3.977-6.466-2.133-6.903-1.751-8.182 2.44-8.182 3.73 0 5.477 1.62 9.131 8.466 2.81 5.265 4.905 6.618 8.266 5.34 2.903-1.104 5.57-4.956 4.306-6.22-.627-.628-1.072-.356-1.471.901-1.012 3.186-3.603 2.125-6.124-2.508-2.301-4.227-6.456-7.694-9.223-7.694-2.126 0-1.677-1.18 1.062-2.798 7.692-4.544 3.734-16.905-5.417-16.917zm-42.834.14c-.608-.039-1.202.192-1.544.776-.396.673-2.018 3.42-3.606 6.103-1.587 2.684-2.645 5.121-2.35 5.417.788.787 9.566-8.617 9.566-10.248 0-1.174-1.053-1.985-2.066-2.048zm126.33.714c.806 0 3.299 7.673 4.108 12.645.382 2.35.2 2.763-1.16 2.633-.886-.085-3.445-.3-5.685-.476-2.866-.226-4.071-.694-4.071-1.581 0-1.815 5.873-13.22 6.808-13.22zm-87.025 1.75c1.427-.017 2.842.248 3.88.803 1.946 1.042 3.463 5.227 3.463 9.557 0 3.65-1.864 5.453-6.627 6.405-2.622.525-2.71.436-4.05-4.06-2.472-8.305-2.6-10.742-.62-11.801 1.088-.583 2.527-.885 3.954-.903zm-33.62 10.252c-10.533 0-19.05 7.966-19.05 17.817 0 8.22 5.294 17.625 11.52 20.463 3.494 1.593 11.238.975 15.548-1.24 11.66-5.995 14.05-20.328 5.129-30.75-3.771-4.406-7.708-6.29-13.146-6.29zm-2.777 2.572c3.47 0 4.764.458 7.105 2.513 6.346 5.572 10.023 18.384 7.209 25.12-2.484 5.944-9.446 8.305-14.822 5.027-5.995-3.656-10.087-12.964-9.594-21.83.297-5.36.574-6.108 3.093-8.358 2.259-2.018 3.543-2.472 7.009-2.472zm210.095 1.045c-8.96.248-17.238 8.427-19.333 19.69-1.147 6.167 2.416 12.99 8.71 16.679 6.928 4.06 12.771 4.436 19.028 1.227 6.177-3.168 10.553-10.288 11.117-18.09.68-9.385-6.508-17.689-16.725-19.322-.936-.15-1.87-.21-2.797-.184zm3.707 2.68c.942 0 1.92.323 3.61.969 4.987 1.904 6.751 4.8 6.69 10.98-.04 3.884-.683 6.193-2.973 10.678-5.16 10.104-13.187 13.992-20.137 9.754-5.48-3.342-6.001-11.222-1.347-20.387 2.976-5.862 6.126-9.087 10.764-11.024 1.546-.646 2.451-.97 3.393-.97zM190.257 561.29c-.499.017-.198.842.873 2.477.8 1.22 1.272 2.915 1.05 3.766-.528 2.018-19.073 29.895-21.925 32.957-2.29 2.459-5.11 2.982-7.934 1.471-2.038-1.091-2.099-2.348-.214-4.43 1.353-1.496 1.351-1.686-.017-3.054-2.847-2.848-6.164 1.751-4.076 5.653.488.911 2.536 2.489 4.554 3.504 4.424 2.226 8.328 1.802 12.49-1.357 1.55-1.177 6.99-8.379 12.087-16.004 5.097-7.625 9.935-14.418 10.751-15.096 1.17-.971 2.013-1.032 3.988-.287 3.533 1.334 3.11-.113-.711-2.432-1.768-1.072-4.916-3.23-6.994-4.793-2.125-1.6-3.423-2.392-3.922-2.375zm224.076 7.926c-.461-.033-2.456 1.054-4.828 2.657-2.712 1.833-6.184 3.968-7.716 4.745-3.572 1.81-3.543 2.445.079 1.765 2.457-.46 3.168-.178 4.994 1.992 3.174 3.772 15.288 23.784 15.288 25.254 0 .701-.8 2.29-1.777 3.533-.977 1.243-1.588 2.26-1.358 2.26.23 0 4.792-2.746 10.136-6.1a2685.313 2685.313 0 0012.938-8.16l3.221-2.063-2.163-4.27c-1.19-2.349-2.368-4.27-2.618-4.27-.249 0-.193 1.38.124 3.068.757 4.038-.792 6.816-5.259 9.434-4.177 2.448-7.336 2.646-9.136.572-3.225-3.716-14.396-23.325-14.396-25.272 0-1.192.579-2.647 1.286-3.234.707-.587 1.286-1.41 1.286-1.827 0-.052-.035-.08-.1-.084zm-208.445 3.717c-.52.045-.228.596.91 1.657 2.726 2.54 2.35 5.185-2.114 14.879-5.43 11.791-6.383 15.143-5.36 18.848 2.284 8.272 16.84 13.656 24.012 8.881 2.251-1.498 4.276-4.664 8.914-13.932 5.781-11.553 6.112-12.01 9.002-12.463l3.002-.471-5.907-2.744c-7.084-3.292-7.377-3.332-4.872-.666 1.796 1.912 1.867 2.34.88 5.359-2.218 6.785-9.464 20.788-11.644 22.502-2.729 2.147-8.663 2.389-12.313.501-6.581-3.403-6.891-9.497-1.12-22.076 5.764-12.563 5.825-12.641 9.997-12.706l3.545-.054-3-1.389c-1.65-.763-5.23-2.474-7.956-3.803-3.29-1.603-5.306-2.381-5.976-2.323zm173.364 11.91c-.406 0-.855 9.037-.997 20.08-.25 19.468-.316 20.144-2.186 22.133-2.827 3.006-2.369 3.485 1.465 1.53 1.868-.953 3.772-1.733 4.231-1.733.46 0 1.922-.457 3.25-1.016l2.413-1.014-3.43-.485-3.428-.485v-11.115l5.867-2.36c6.711-2.7 7.645-2.486 11.127 2.54 2.792 4.028 2.833 4.754.367 6.586-1.752 1.302-1.772 1.396-.215 1.019.943-.229 4.69-1.466 8.326-2.75 6.605-2.33 7.868-3.78 3.297-3.78-2.034 0-4.574-2.33-15.884-14.574-7.405-8.016-13.797-14.575-14.203-14.575zm-133.544 6.02c-1.314.037-1.049.554 1.12 1.542 1.151.525 2.318 1.852 2.594 2.949.576 2.298-5.104 28.585-6.555 30.334-.532.641-1.862 1.165-2.955 1.165-3.364 0-3.184 1.596.245 2.178 1.781.302 5.746 1.256 8.811 2.119 6.74 1.897 15.35 2.132 19.104.52 3.876-1.662 8.024-6.302 9.581-10.714 2.75-7.793 1.138-14.902-4.71-20.775-4.32-4.338-6.181-5.125-18.879-7.98-4.148-.932-7.042-1.375-8.356-1.338zm113.113 2.5c-1.01 0-3.025.335-5.9 1.023-3.655.874-7.513 1.593-8.574 1.597-1.061.003-1.929.393-1.929.864 0 .472.905.857 2.01.857 1.106 0 2.613.675 3.349 1.5.735.826 2.737 7.9 4.447 15.72 2.813 12.866 3.16 17.073 1.411 17.073-.33 0-1.35.566-2.265 1.259-2.14 1.618-.748 1.633 5.421.056 2.704-.69 6.374-1.48 8.156-1.757 3.715-.575 3.49-2.13-.308-2.13-3.209 0-3.509-.693-6.781-15.64-3.245-14.82-3.307-17.501-.436-18.81 2.334-1.063 2.697-1.614 1.399-1.613zm22.073.912c1.268 0 10.545 11.061 10.006 11.932-.425.688-9.151 4.357-10.363 4.357-.218 0-.397-3.665-.397-8.145 0-4.48.34-8.144.754-8.144zm-122.318 1.285c.704.03 1.668.299 3.145.82 8.623 3.042 10.836 6.556 10.216 16.22-.862 13.427-8.412 20.857-17.742 17.46-4.951-1.803-5.004-2.451-1.486-18.341 1.76-7.944 3.686-14.935 4.28-15.535.438-.442.882-.653 1.587-.624zm65.464 2.336c-2.776-.053-4.122.456-7.337 2.106-6.907 3.545-9.746 8.022-10.149 16-.54 10.719 2.5 17.125 9.68 20.386 4.762 2.163 13.438 2.104 18.347-.123 4.593-2.084 5.792-2.117 6.911-.195.695 1.193.863.797.824-1.929-.027-1.886-.331-5.358-.678-7.716-.595-4.051-.666-4.146-1.28-1.715-1.948 7.697-4.36 10.29-10.42 11.198-4.961.744-7.432.05-11.01-3.092-3.772-3.312-5.665-8.887-5.64-16.617.03-10.17 3.334-15.223 10.698-16.37 5.606-.874 9.822 1.052 13.191 6.023l2.905 4.283-.546-4.192c-.3-2.305-.548-4.813-.548-5.572 0-.95-.867-1.435-2.785-1.553-1.533-.095-5.488-.412-8.789-.704-1.365-.12-2.449-.2-3.374-.218zm-40.35.618l2.71 1.429c1.49.786 2.864 2.243 3.052 3.239.643 3.395-1.725 29.71-2.788 30.992-.572.69-1.957 1.253-3.078 1.253-1.121 0-2.038.385-2.038.857 0 .471 2.025.886 4.5.921 2.476.035 6.238.373 8.36.75 2.122.378 4.147.735 4.5.794.354.059.644-.271.644-.734 0-.462-.975-1.086-2.167-1.385-3.642-.914-3.878-2.51-2.682-18.2 1.171-15.373 1.771-17.297 5.382-17.297 1.122 0 2.039-.386 2.039-.857 0-.472-1.447-.86-3.215-.863-1.769-.003-5.916-.208-9.217-.454z" fill="#ce9d1f"/><path d="M330.359 577.528c23.042-2.852 44.433-9.114 65.642-19.214 66.01-31.434 111.903-94.957 120.857-167.285 1.712-13.83 1.71-39.678-.005-52.84-6.462-49.612-28.725-93.807-64.543-128.13-27.288-26.147-60.4-44.522-96.175-53.37-17.731-4.384-27.3-5.672-46.296-6.23-59.498-1.747-114.96 20.368-157.322 62.73-17.385 17.384-30.768 36.063-41.158 57.441-15.884 32.685-22.627 63.906-21.57 99.88.557 18.995 1.845 28.565 6.23 46.296 17.56 71.003 72.33 129.532 142.232 151.991 11.535 3.706 26.158 7.02 38.152 8.647 12.41 1.684 40.68 1.728 53.955.084zm-46.24-2.13c-60.436-6.274-113.896-36.404-149.806-84.433-44.575-59.616-53.165-136.648-27.51-202.831a209.92 209.92 0 0144.24-69.463c53.602-55.938 131.98-78.15 206.708-58.582 75.636 19.806 134.218 79.998 152.226 156.409 3.981 16.89 5.115 27.363 5.152 47.582.065 35.451-6.095 62.422-21.344 93.45-11.21 22.807-22.806 39.085-40.323 56.602-17.518 17.518-33.796 29.114-56.603 40.323-21.174 10.407-40.009 16.274-63.443 19.763-10.334 1.538-39.192 2.23-49.297 1.18zM72.991 468.711c.112-.087-1.318-3.883-3.177-8.436-7.345-17.983-13.202-39.506-15.936-58.56a3357.874 3357.874 0 00-1.757-12.13c-.362-2.423-.748-2.786-2.96-2.786-2.889 0-2.845-1.926-.36 15.86 2.695 19.292 10.344 46.627 17.464 62.412 2.497 5.536 2.725 5.776 4.575 4.813 1.07-.557 2.038-1.085 2.15-1.173zm470.755-8.824c8.84-22.594 14.488-45.188 16.932-67.73l.581-5.358h-5.043l-1.854 13.074c-2.984 21.047-9.488 44.791-17.201 62.8l-2.57 6.001 1.863 1.042c1.026.572 2.124 1.055 2.44 1.071.317.017 2.5-4.888 4.852-10.9zM53.933 357.67l-6.437-6.437-6.202 6.201-6.201 6.202 6.395 6.438 6.394 6.437 6.244-6.202 6.244-6.202zm509.891-.22l-6.201-6.202-6.438 6.394-6.438 6.395 6.202 6.244 6.203 6.244 6.437-6.437 6.437-6.437zM52.163 340.164c.226-1.464.85-6.135 1.385-10.379 2.347-18.595 7.86-39.517 15.459-58.662 3.219-8.111 3.973-10.83 3.149-11.353-2.938-1.865-3.88-.688-8.18 10.216-8.53 21.63-13.956 43.669-16.836 68.373-.5 4.283-.498 4.287 2.055 4.377 2.225.079 2.61-.254 2.968-2.572zm508.503-2.663c-2.466-23.445-9.972-52.597-18.674-72.525-2.95-6.753-3.232-6.93-7.328-4.598-.124.07.792 2.406 2.035 5.19 8.674 19.418 16.364 48.918 18.796 72.107.553 5.267.583 5.316 3.135 5.144l2.576-.174z" fill="#c4893f"/></g></svg>